<svg width="100" height="100" viewBox="0 0 100 100" fill="none" xmlns="http://www.w3.org/2000/svg">
<rect width="100" height="100" rx="50" fill="#4AADA7"/>
<path d="M41.4601 31.4545C32.9576 29.7311 31.4065 34.8536 31.6938 37.6303C23.8807 39.1239 26.7149 44.4763 29.1086 46.9657C22.2147 51.7914 27.9596 54.4341 31.6938 55.1522C31.6938 61.7014 37.4387 61.0407 40.3111 59.8917C43.6431 66.4409 52.3275 63.3865 56.2532 61.0407C66.2493 63.6833 68.2696 58.2161 68.0302 55.1522C75.0389 54.5777 72.7697 49.4552 70.759 46.9657C77.0784 42.0251 71.5729 38.6835 68.0302 37.6303C67.3408 29.2427 58.3596 30.0183 53.9552 31.4545C48.8997 26.5139 43.5187 29.3959 41.4601 31.4545Z" fill="#FAF353"/>
<path d="M27.6753 32.315C28.0435 32.6372 28.528 32.8711 28.708 33.3511C28.487 33.3143 28.1454 33.2115 27.9428 33.1073C27.7601 33.0134 27.625 32.8396 27.4281 32.7552C26.9651 32.5568 26.4664 32.5947 25.9857 32.4504C25.8543 32.411 25.7277 32.4437 25.5997 32.376C25.4936 32.3198 25.4812 32.2083 25.3559 32.1931C25.1272 32.1654 24.9605 31.9211 24.7058 31.8748C24.3651 31.8129 24.0512 31.8224 23.7103 31.8748C23.4522 31.9145 23.2245 31.7205 23.0534 31.5362C22.9544 31.4296 22.8683 31.107 22.857 30.9606C22.839 30.7258 22.4762 30.5065 22.3085 30.3782C22.0278 30.1636 21.4512 30.1922 21.0895 30.1818C20.538 30.1661 20.1144 30.2162 20.1144 29.525C20.1144 28.9519 20.2984 28.1794 20.6934 27.7406C20.8786 27.5348 20.9426 27.3426 21.181 27.192C21.3612 27.0782 21.5342 26.9561 21.7329 26.8839C22.1444 26.7342 22.4575 26.5859 22.918 26.5859C24.1676 26.5859 25.4778 26.9918 25.4778 28.4753C25.4778 29.2079 25.8325 29.406 26.3615 29.7586C26.9255 30.1346 26.3429 30.9793 26.7272 31.3636C26.8529 31.4893 27.0363 31.5642 27.1538 31.7089C27.3238 31.9181 27.4708 32.1361 27.6753 32.315Z" fill="#FAF353"/>
<path d="M74.3258 60.7856C74.055 60.5531 73.6987 60.3842 73.5664 60.0377C73.7289 60.0643 73.9801 60.1385 74.1291 60.2137C74.2634 60.2815 74.3627 60.407 74.5075 60.4679C74.848 60.6111 75.2147 60.5838 75.5682 60.6879C75.6648 60.7163 75.758 60.6927 75.8521 60.7416C75.9301 60.7822 75.9392 60.8626 76.0314 60.8736C76.1995 60.8936 76.3221 61.0699 76.5094 61.1033C76.7599 61.148 76.9908 61.1412 77.2415 61.1033C77.4313 61.0747 77.5987 61.2147 77.7245 61.3477C77.7973 61.4247 77.8606 61.6576 77.8689 61.7632C77.8822 61.9327 78.149 62.091 78.2723 62.1836C78.4787 62.3385 78.9027 62.3179 79.1686 62.3253C79.5743 62.3367 79.8857 62.3005 79.8857 62.7995C79.8857 63.2132 79.7504 63.7707 79.46 64.0875C79.3238 64.236 79.2767 64.3747 79.1014 64.4834C78.9689 64.5656 78.8416 64.6537 78.6956 64.7058C78.3929 64.8138 78.1627 64.9209 77.8241 64.9209C76.9052 64.9209 75.9417 64.6279 75.9417 63.5571C75.9417 63.0283 75.6809 62.8854 75.2919 62.6309C74.8772 62.3595 75.3055 61.7497 75.023 61.4724C74.9305 61.3816 74.7957 61.3275 74.7092 61.2231C74.5843 61.0721 74.4761 60.9147 74.3258 60.7856Z" fill="#FAF353"/>
<ellipse cx="28.8726" cy="64.2216" rx="2.87244" ry="2.01071" fill="#FAF353"/>
<ellipse cx="32.6065" cy="69.5369" rx="2.01071" ry="1.57984" fill="#FAF353"/>
<ellipse cx="37.7768" cy="72.1217" rx="1.72347" ry="1.2926" fill="#FAF353"/>
</svg>
