<svg width="100" height="100" viewBox="0 0 100 100" fill="none" xmlns="http://www.w3.org/2000/svg">
<rect width="100" height="100" rx="50" fill="#FAF353"/>
<path d="M82.7721 29.6236L81.3498 27.7886L75.6606 34.2111L82.7721 29.6236Z" fill="#006C65"/>
<path d="M17.6698 68.4034L18.6019 70.5717L25.6433 65.9511L17.6698 68.4034Z" fill="#006C65"/>
<path d="M77.4698 26.7724L76.1533 26.278L74.849 31.6785L77.4698 26.7724Z" fill="#006C65"/>
<path d="M22.1753 73.1146L23.328 73.9585L25.8879 69.1049L22.1753 73.1146Z" fill="#006C65"/>
<path d="M66.0199 74.0643C62.0375 72.7187 58.7662 67.5908 57.6284 65.1951C54.4045 65.399 46.1647 65.8374 38.9963 65.9597C31.828 66.0821 29.467 61.729 29.1826 59.5372C29.2774 55.4084 29.4102 45.8664 29.1826 40.7284C28.955 35.5903 34.0184 34.1019 36.5785 34C42.6469 34.1529 56.7466 34.5199 64.5976 34.7646C72.4486 35.0093 74.5062 39.2502 74.5536 41.34C74.6958 42.7163 74.895 47.0897 74.5536 53.5734C74.2123 60.0571 73.3684 61.8819 72.9891 61.9839C72.3064 65.5316 64.8346 65.6029 61.1841 65.1951C59.7049 67.1525 63.7916 71.9235 66.0199 74.0643Z" fill="#006C65"/>
</svg>
