<svg width="100" height="100" viewBox="0 0 100 100" fill="none" xmlns="http://www.w3.org/2000/svg">
<rect width="100" height="100" rx="50" fill="#4AADA7"/>
<path d="M24.8302 42.1285C21.6238 39.8891 15.0584 35.6546 14.4477 36.6318C13.8369 37.609 21.1149 40.7034 24.8302 42.1285Z" fill="#FAF353"/>
<path d="M64.7147 66.7353C67.9211 68.9747 74.4865 73.2091 75.0973 72.232C75.708 71.2548 68.43 68.1604 64.7147 66.7353Z" fill="#FAF353"/>
<path d="M77.8389 35.1451C79.7775 32.8404 83.817 28.3823 84.466 28.9874C85.1151 29.5925 80.3184 33.3447 77.8389 35.1451Z" fill="#FAF353"/>
<path d="M26.6593 38.6942C25.1176 35.3983 21.7975 28.9324 20.8508 29.4356C19.9041 29.9388 24.3287 35.8177 26.6593 38.6942Z" fill="#FAF353"/>
<path d="M59.3387 67.7355C60.8804 71.0314 64.2006 77.4973 65.1472 76.9941C66.0939 76.4909 61.6693 70.612 59.3387 67.7355Z" fill="#FAF353"/>
<path d="M75.8574 31.0086C76.3473 28.2499 77.5282 22.7787 78.3326 22.9643C79.137 23.15 77.0177 28.4046 75.8574 31.0086Z" fill="#FAF353"/>
<path d="M30.0213 35.8675C33.4415 46.0058 25.4408 49.2529 21.0129 49.6091C32.3727 52.785 33.584 62.1293 32.7697 66.4045C43.2744 61.6407 50.6847 66.0482 53.0767 68.8474C58.3291 58.0984 71.0427 61.315 76.7429 64.2669C73.3228 57.3045 78.1679 51.594 81.0181 49.6091C73.567 47.7769 73.9437 39.6846 75.0634 35.8675C66.0244 39.6541 56.6394 34.2898 53.0767 31.1343C45.5036 39.4403 34.551 37.7506 30.0213 35.8675Z" fill="#FAF353"/>
</svg>
