<svg width="20" height="22" viewBox="0 0 20 22" fill="none" xmlns="http://www.w3.org/2000/svg">
<path d="M14.5 0.314453C15.3284 0.314453 16 0.986026 16 1.81445V3.31445H19.3C19.4105 3.31445 19.5 3.404 19.5 3.51445V4.61445C19.5 4.72491 19.4105 4.81445 19.3 4.81445H18.5V18.3145C18.5 19.9713 17.1569 21.3145 15.5 21.3145H4.5C2.84315 21.3145 1.5 19.9713 1.5 18.3145V4.81445H0.7C0.589543 4.81445 0.5 4.72491 0.5 4.61445V3.51445C0.5 3.404 0.589543 3.31445 0.7 3.31445H4V1.81445C4 0.986026 4.67157 0.314453 5.5 0.314453H14.5ZM17 4.81445H3V18.3145C3 19.1133 3.62446 19.7663 4.41186 19.8119L4.5 19.8145H15.5C16.2988 19.8145 16.9518 19.19 16.9975 18.4026L17 18.3145V4.81445ZM7.8 7.81445C7.91046 7.81445 8 7.904 8 8.01445V16.6145C8 16.7249 7.91046 16.8145 7.8 16.8145H6.7C6.58954 16.8145 6.5 16.7249 6.5 16.6145V8.01445C6.5 7.904 6.58954 7.81445 6.7 7.81445H7.8ZM13.8 7.81445C13.9105 7.81445 14 7.904 14 8.01445V16.6145C14 16.7249 13.9105 16.8145 13.8 16.8145H12.7C12.5895 16.8145 12.5 16.7249 12.5 16.6145V8.01445C12.5 7.904 12.5895 7.81445 12.7 7.81445H13.8ZM14.5 1.81445H5.5V3.31445H14.5V1.81445Z" fill="black"/>
</svg>
