<svg width="18" height="20" viewBox="0 0 18 20" fill="none" xmlns="http://www.w3.org/2000/svg">
<path d="M16 0C17.1046 0 18 0.884538 18 1.97567V3.48867C18 3.75252 17.8932 4.0041 17.7057 4.1886L12 9.39052V16.6746C12 17.3686 11.6314 18.0117 11.029 18.3687L7.5145 19.8591C7.04092 20.1398 6.42665 19.9881 6.14251 19.5203C6.04926 19.3667 6 19.1911 6 19.012V9.39052L0.359816 4.24754C0.131823 4.05986 0 3.78184 0 3.48867V1.97567C0 0.884538 0.89543 0 2 0H16ZM16 1.48175H2C1.74358 1.48175 1.53225 1.67243 1.50336 1.91807L1.5 1.97567V3.16875C1.5 3.22519 1.52385 3.27901 1.56567 3.31692L7.43433 8.63697C7.47615 8.67488 7.5 8.7287 7.5 8.78515V17.8501C7.5 17.9606 7.58954 18.0501 7.7 18.0501C7.72414 18.0501 7.74808 18.0458 7.77066 18.0372L10.2572 17.0981C10.389 17.02 10.476 16.8872 10.4957 16.739L10.5 16.6746V8.78514C10.5 8.7287 10.5239 8.67488 10.5657 8.63697L16.4343 3.31643C16.4761 3.27852 16.5 3.2247 16.5 3.16826V1.97567C16.5 1.72237 16.307 1.51361 16.0583 1.48508L16 1.48175ZM18 16.0115V17.0932C18 17.2037 17.9105 17.2932 17.8 17.2932H14.2C14.0895 17.2932 14 17.2037 14 17.0932V16.0115C14 15.901 14.0895 15.8115 14.2 15.8115H17.8C17.9105 15.8115 18 15.901 18 16.0115ZM18 13.048V14.1297C18 14.2402 17.9105 14.3297 17.8 14.3297H14.2C14.0895 14.3297 14 14.2402 14 14.1297V13.048C14 12.9375 14.0895 12.848 14.2 12.848H17.8C17.9105 12.848 18 12.9375 18 13.048ZM18 10.0844V11.1662C18 11.2767 17.9105 11.3662 17.8 11.3662H14.2C14.0895 11.3662 14 11.2767 14 11.1662V10.0844C14 9.97399 14.0895 9.88444 14.2 9.88444H17.8C17.9105 9.88444 18 9.97399 18 10.0844Z" fill="black"/>
</svg>
