<svg width="21" height="17" viewBox="0 0 21 17" fill="none" xmlns="http://www.w3.org/2000/svg">
<path d="M9.2557 0.000462532C11.6036 0.000462432 13.507 1.86683 13.507 4.16911V6.12363C13.507 7.28386 13.0294 8.39548 12.1823 9.20625L11.3051 10.0461C11.2901 10.0605 11.2817 10.0802 11.2817 10.1008L11.2812 10.1918L16.8853 13.0014C17.6469 13.3511 18.1481 14.0858 18.187 14.9095L18.1894 15.0124V15.1746C18.1894 16.1827 17.3559 17 16.3277 17H1.86162C0.880678 17 0.0679431 16.2538 0.00374854 15.294L0.00140572 15.2398L0 15.1487L0.000468612 15.0123C0.000468612 14.199 0.453574 13.451 1.18126 13.0623L1.22484 13.0403L1.32324 12.992L6.90767 10.1921L6.90814 10.1007C6.90826 10.0888 6.90553 10.077 6.90018 10.0662L6.89408 10.058L6.87862 10.041L6.00708 9.20613C5.23472 8.46498 4.76726 7.47122 4.69369 6.41401L4.68525 6.26055L4.68244 6.10985V4.16864C4.68244 1.91822 6.50517 0.0735058 8.81989 0.0013783L8.945 0L9.2557 0.000462532ZM8.94457 1.37882L8.84102 1.38021C7.30613 1.42906 6.08766 2.66328 6.0877 4.16911V6.11031L6.09004 6.2362C6.1195 6.98595 6.44117 7.69605 6.98875 8.22013L7.89075 9.08483L7.96759 9.16753C8.19063 9.42896 8.3134 9.75931 8.3134 10.1011L8.31293 10.2376L8.30731 10.335C8.26019 10.8132 7.95914 11.2316 7.51543 11.4354L1.91926 14.2408L1.85366 14.273C1.57815 14.42 1.40571 14.704 1.40571 15.0127V15.1529L1.40665 15.2052C1.4229 15.4397 1.6215 15.6218 1.86116 15.622H16.3274C16.5791 15.622 16.7833 15.4218 16.7833 15.1749V15.0127C16.7833 14.6861 16.5907 14.3883 16.2885 14.25L10.6736 11.4354C10.1866 11.2117 9.87551 10.7319 9.87559 10.2045V10.1011C9.87559 9.70922 10.0368 9.33385 10.3226 9.06001L11.2002 8.22013C11.7763 7.66883 12.1012 6.91294 12.1013 6.12363V4.1691C12.1013 2.62807 10.8273 1.37882 9.25568 1.37882H8.94457ZM17.4097 4.61663L17.4116 4.72874V6.20314C17.4116 7.10328 17.0523 7.9671 16.4108 8.61017L16.3124 8.70482L15.7192 9.25479L19.7808 11.2897C20.4569 11.5906 20.9179 12.2224 20.9902 12.947L20.9977 13.0453L21 13.145C21 13.9426 20.3862 14.6113 19.5776 14.6948C19.4557 14.0685 19.317 13.6118 19.1619 13.3242L19.4107 13.3247C19.5117 13.3249 19.5937 13.2449 19.594 13.146C19.594 12.908 19.4642 12.6906 19.2575 12.5744L19.1994 12.545L17.8171 11.9293C17.7082 11.865 17.5959 11.8062 17.4807 11.7533L14.6215 10.205C14.383 9.97959 14.2485 9.66873 14.2487 9.34399C14.2487 8.97964 14.3893 8.63045 14.6391 8.36397L14.7103 8.29367L15.3475 7.70327C15.7388 7.34044 15.9732 6.84432 16.0026 6.31709L16.0059 6.20314V4.72828C16.0059 3.93067 15.5163 3.21185 14.7652 2.90641C14.6856 2.57008 14.4794 2.06147 14.1477 1.38147C15.9296 1.46022 17.3501 2.86893 17.4097 4.61663Z" fill="#F6F6F6"/>
</svg>
