<svg width="20" height="21" viewBox="0 0 20 21" fill="none" xmlns="http://www.w3.org/2000/svg">
<path d="M9.75 0.5C12.5056 0.5 14.7395 2.73388 14.7395 5.4895V7.5105C14.7395 9.35723 13.7362 10.9696 12.245 11.8324L12.2448 12L17.7325 14.9329C18.9383 15.5774 19.6302 16.8911 19.4796 18.25C19.3375 19.5309 18.255 20.5 16.9663 20.5H2.53372C1.24501 20.5 0.162467 19.5309 0.0204487 18.25C-0.130223 16.8911 0.561692 15.5774 1.76751 14.9329L7.25524 12L7.25502 11.8324C5.76377 10.9696 4.76049 9.35723 4.76049 7.5105V5.4895C4.76049 2.73388 6.99437 0.5 9.75 0.5ZM9.75 2C7.86295 2 6.32574 3.49789 6.26251 5.36954L6.26049 5.4895V7.5105C6.26049 8.72641 6.88643 9.83177 7.89281 10.4655L8.00618 10.534L8.65418 10.9089C8.71589 10.9446 8.75393 11.0104 8.75403 11.0817L8.75628 12.7784C8.75638 12.8523 8.71573 12.9202 8.65055 12.9551L2.47455 16.2559C1.80973 16.6112 1.42824 17.3355 1.51132 18.0847C1.5662 18.5797 1.96639 18.9603 2.45575 18.9971L2.53372 19H16.9663C17.4905 19 17.9309 18.6057 17.9887 18.0847C18.068 17.3695 17.724 16.6771 17.1143 16.3066L17.0255 16.2559L10.8494 12.9551C10.7843 12.9202 10.7436 12.8523 10.7437 12.7784L10.746 11.0817C10.7461 11.0104 10.7841 10.9446 10.8458 10.9089L11.4938 10.534C12.528 9.93566 13.1909 8.85235 13.2369 7.64512L13.2395 7.5105V5.4895C13.2395 3.5623 11.6772 2 9.75 2ZM19.3 10C19.4105 10 19.5 10.0895 19.5 10.2V11.3C19.5 11.4105 19.4105 11.5 19.3 11.5H17.7C17.5895 11.5 17.5 11.4105 17.5 11.3V10.2C17.5 10.0895 17.5895 10 17.7 10H19.3ZM19.3 7C19.4105 7 19.5 7.08954 19.5 7.2V8.3C19.5 8.41046 19.4105 8.5 19.3 8.5H16.2C16.0895 8.5 16 8.41046 16 8.3V7.2C16 7.08954 16.0895 7 16.2 7H19.3ZM19.3 4C19.4105 4 19.5 4.08954 19.5 4.2V5.3C19.5 5.41046 19.4105 5.5 19.3 5.5H16.2C16.0895 5.5 16 5.41046 16 5.3V4.2C16 4.08954 16.0895 4 16.2 4H19.3Z" fill="#F6F6F6"/>
</svg>
