<svg width="25" height="25" viewBox="0 0 25 25" xmlns="http://www.w3.org/2000/svg"><path d="M12.5 15.8164L15.5 12.8164M15.5 12.8164L12.5 9.81641M15.5 12.8164H4.5M9.5 8.06499V8.0166C9.5 6.8965 9.5 6.33603 9.71799 5.9082C9.90973 5.53188 10.2155 5.22614 10.5918 5.03439C11.0196 4.81641 11.5801 4.81641 12.7002 4.81641H17.3002C18.4203 4.81641 18.9796 4.81641 19.4074 5.03439C19.7837 5.22614 20.0905 5.53188 20.2822 5.9082C20.5 6.33561 20.5 6.8954 20.5 8.01332V17.62C20.5 18.7379 20.5 19.2969 20.2822 19.7243C20.0905 20.1006 19.7837 20.4069 19.4074 20.5986C18.98 20.8164 18.421 20.8164 17.3031 20.8164H12.6969C11.579 20.8164 11.0192 20.8164 10.5918 20.5986C10.2155 20.4069 9.90973 20.1003 9.71799 19.724C9.5 19.2962 9.5 18.7365 9.5 17.6164V17.5664"/></svg>