<svg width="100" height="100" viewBox="0 0 100 100" fill="none" xmlns="http://www.w3.org/2000/svg">
<rect width="100" height="100" rx="50" fill="#FAF353"/>
<path d="M25.6785 70.5089C27.4671 72.0988 27.6938 74.4498 27.6938 76.7343C27.1367 78.9627 32.4935 79.2951 33.9468 79.8401C36.4437 80.7764 39.2421 79.7927 41.8009 80.3232C45.793 81.1508 49.7672 82.7974 53.7824 83.4152C55.9367 83.7466 58.0012 83.0035 60.1044 82.9459C61.9888 82.8942 64.1833 83.3187 65.5982 81.7588C66.2765 81.0109 66.5915 80.3774 66.6886 79.3569C66.7922 78.2692 66.2534 78.0175 65.8466 77.0932C64.5705 74.1928 68.2754 74.629 69.8773 73.5043C71.3618 72.4619 73.3833 71.8882 73.3833 69.6531C73.3833 68.3101 73.056 66.9348 72.5551 65.7053C72.0384 64.437 71.0115 64.031 70.1809 63.0136C68.891 61.4335 67.7481 59.4731 67.9586 57.368C68.148 55.474 70.0854 54.8919 71.5613 54.3726C72.958 53.8812 75.4454 53.0507 76.144 51.6533C76.5579 50.8256 77.6559 50.3885 77.8557 49.3896C78.2935 47.2005 77.1617 44.3189 75.7023 42.7501C74.2271 41.1642 72.3808 40.1979 70.7331 38.7333C69.612 37.7367 70.7127 35.2957 71.7269 34.606C72.8381 33.8504 76.0041 33.1921 76.3649 31.7487C76.6917 30.4414 76.2658 28.7792 75.1502 28.1736C74.3024 27.7134 73.5187 26.7388 72.5275 26.5586C71.8693 26.4389 71.1336 26.2838 70.4846 26.0478C68.3565 25.274 66.396 25.054 64.135 25.054C61.7999 25.054 59.6066 24.3321 57.5093 23.4252C55.9787 22.7633 53.7109 23.0663 52.0569 23.0663C48.0357 23.0663 43.9607 23.3148 39.9789 23.3148C38.1295 23.3148 36.2067 23.625 34.4023 24.0049C32.2496 24.4581 29.9233 23.9687 28.0665 25.4129C26.3124 26.7771 28.1771 29.2196 28.9361 30.5478C29.9786 32.3722 30.8992 33.8241 30.1784 35.9864C29.5816 37.7767 27.86 38.369 26.8242 39.8651C25.0865 42.375 25.4993 44.3608 26.4515 47.1672C27.3616 49.8497 28.1747 53.1198 26.4377 55.7254C24.6321 58.4337 21.3756 61.109 22.1724 64.6148C22.4252 65.7274 23.1653 66.5155 23.6079 67.5273C24.1439 68.7524 24.6745 69.6165 25.6785 70.5089Z" fill="#4AADA7" stroke="#0C0A00" stroke-linecap="round"/>
<path d="M46.2195 18.9852C47.1257 19.4771 46.7975 19.3667 47.4317 20.1166C47.826 20.708 48.1948 21.4183 48.5137 22.0561C48.7584 22.5455 48.8233 23.1689 48.9851 23.6903L48.9921 23.7127C49.1735 24.2972 49.3797 24.9615 49.2814 25.5759C49.1238 26.561 48.76 27.5833 48.4823 28.548C48.2767 29.2621 47.9414 29.5679 47.4407 30.0879C47.142 30.3981 46.748 30.506 46.4216 30.7748C46.2849 30.8874 46.1577 30.821 46.013 30.8736C45.8796 30.9221 45.7955 31.0498 45.6538 31.0891C45.5228 31.1255 45.3844 31.0835 45.2543 31.116C45.1259 31.1481 45.0693 31.2603 44.9265 31.2687C44.258 31.308 43.7031 31.5881 43.0633 31.2283C42.5713 30.9515 41.9071 30.7238 41.5324 30.281C41.3901 30.1128 41.1685 30.0685 41.0296 29.8949C40.9396 29.7824 40.9012 29.6288 40.7961 29.5312C40.6339 29.3806 40.4899 29.1304 40.4055 28.9476C40.0993 28.2842 39.9517 27.536 39.8174 26.824C39.5563 25.4401 38.9308 24.0933 38.8701 22.6666C38.8097 21.2477 39.2641 20.3818 40.1586 19.3084C40.9807 18.3218 41.9621 17.5978 43.3193 17.9032C44.3843 18.1428 45.2719 18.4708 46.2195 18.9852Z" fill="#E0DCE9" stroke="#0C0A00" stroke-linecap="round"/>
<path d="M56.7926 17.9276C57.9534 18.5369 57.533 18.4002 58.3454 19.3289C58.8505 20.0615 59.323 20.9412 59.7315 21.7311C60.045 22.3373 60.1281 23.1094 60.3354 23.7552L60.3443 23.7829C60.5767 24.5069 60.8409 25.3296 60.7149 26.0906C60.513 27.3108 60.047 28.5769 59.6912 29.7718C59.4279 30.6562 58.9984 31.035 58.3569 31.6791C57.9743 32.0632 57.4696 32.1969 57.0514 32.5298C56.8764 32.6692 56.7134 32.587 56.5281 32.6522C56.3572 32.7122 56.2494 32.8703 56.068 32.9191C55.9002 32.9641 55.7228 32.9122 55.5561 32.9524C55.3917 32.9922 55.3192 33.1311 55.1363 33.1415C54.2798 33.1902 53.569 33.5371 52.7495 33.0915C52.1192 32.7486 51.2684 32.4667 50.7884 31.9182C50.6061 31.7099 50.3222 31.655 50.1442 31.4399C50.0289 31.3006 49.9798 31.1104 49.8452 30.9895C49.6374 30.803 49.4529 30.4931 49.3448 30.2667C48.9526 29.445 48.7635 28.5184 48.5914 27.6365C48.2569 25.9224 47.4557 24.2543 47.3779 22.4874C47.3006 20.7299 47.8827 19.6574 49.0285 18.328C50.0817 17.1061 51.3389 16.2093 53.0773 16.5875C54.4417 16.8843 55.5787 17.2905 56.7926 17.9276Z" fill="#E0DCE9" stroke="#0C0A00" stroke-linecap="round"/>
<path d="M52.7122 24.5351C52.7122 25.1009 52.7888 25.6348 52.979 26.1675C53.1107 26.5361 53.5933 26.5241 53.7487 26.1551C53.8737 25.858 53.8121 25.0793 53.6494 24.7834C53.5775 24.6527 52.8859 24.1379 52.8797 24.1441" stroke="#0C0A00" stroke-width="3" stroke-linecap="round"/>
<path d="M42.2292 42.2836C42.4125 41.5503 42.6857 40.574 42.7058 39.813C43.154 40.4854 43.4337 40.8008 44.1373 41.2062C44.9185 42.5037 47.0685 43.3 48.5273 43.6697C49.2963 44.1658 50.288 44.2479 51.1682 44.4916C51.7741 44.6594 52.3314 44.7154 52.9579 44.7154C53.1731 44.7154 54.2532 44.5804 54.1543 44.8029C54.0158 45.1146 54.0863 45.5165 54.0863 45.8534V60.8328C54.0863 62.9764 54.3087 65.2845 53.8625 67.3936C53.6756 68.2772 53.4893 69.5362 52.8607 70.2388C52.281 70.8866 51.7521 71.5749 51.0417 72.0966C50.5478 72.4593 49.7876 73.2819 49.1839 73.3368C48.588 73.391 47.8567 73.2311 47.365 72.8845C46.6371 72.3714 46.2264 71.7653 45.6822 71.0655C45.0133 70.2055 44.9043 69.2027 44.2329 68.342C43.5569 67.4754 43.2295 66.7219 42.9003 65.6963C42.7039 65.0845 42.6564 64.468 42.4821 63.8579C42.2784 63.1452 41.9242 62.3811 41.8401 61.645C41.7285 60.6683 41.8304 59.6182 41.8304 58.6346V54.204C41.8304 53.4989 41.8908 52.7611 41.8206 52.0592C41.7706 51.5591 41.5737 51.1103 41.5677 50.6001C41.5608 50.0037 41.5677 49.4068 41.5677 48.8104C41.5677 47.6369 41.4793 46.4169 41.6212 45.2503C41.6955 44.6396 41.9659 44.1038 42.0249 43.4898C42.0651 43.0712 42.1277 42.6894 42.2292 42.2836Z" fill="#0C0A00"/>
<path d="M47.6552 72.3242C47.9045 72.5132 48.3038 72.5914 48.6107 72.6808C49.0181 72.7558 48.8681 72.6808 49.184 72.6808C49.4771 72.6808 49.5116 72.6556 49.7572 72.5276C49.8761 72.4656 50.0924 72.4367 50.1669 72.3242C50.2931 72.1333 50.9828 71.9388 51.0949 71.7254C51.3733 71.1951 51.7734 71.1091 52.0503 70.5788C52.2222 70.2497 52.5717 69.5237 52.8147 69.2412C53.0302 68.9906 53.1361 68.5119 53.3021 68.23C53.5563 67.7984 53.3698 67.3964 53.5791 66.9481C53.7629 66.5542 53.6878 65.8476 53.7702 65.4193C53.8568 64.9688 53.7702 64.8707 53.7702 64.4063C53.7702 63.9215 53.6829 63.418 53.5258 62.9566C53.392 62.5639 52.956 62.0646 52.6653 61.7696C52.3221 61.4215 51.9501 61.1738 51.446 61.2211C51.2546 61.2391 50.9847 61.2527 50.822 61.3705C50.6701 61.4805 50.6776 61.7 50.5673 61.8443C50.2211 62.2968 50.0104 62.9845 49.9433 63.5411C49.8397 64.4002 49.9948 66.9995 49.9303 66.1366C49.8961 65.6796 49.8711 65.2013 49.8029 64.7488C49.6905 64.0026 49.271 63.47 48.8306 62.8768C48.342 62.2187 47.8187 61.3943 46.8548 61.7902C46.1914 62.0626 45.3423 62.4871 44.9596 63.1188C44.8482 63.3026 44.8355 63.4714 44.7802 63.675C44.6657 64.0963 44.5915 64.4458 44.5982 64.8827C44.6068 65.447 44.6862 66.0197 44.8218 66.5666C44.9521 67.0924 45.0203 67.745 45.2585 68.23C45.5268 68.7762 45.6163 69.4096 45.9371 69.9295C46.2801 70.4854 46.5846 71.0573 46.9484 71.6032C47.2237 72.0163 47.275 72.0357 47.6552 72.3242Z" fill="#E8C1CB"/>
<path d="M40.9154 44.9186C40.9207 43.3986 41.0615 41.6158 41.8524 40.2729C41.9543 40.3239 42.2029 40.5092 42.3011 40.5878C42.4865 40.7361 42.6966 40.8344 42.8738 40.9869C43.1601 41.2333 43.8614 41.7679 44.1372 42.0436C44.3323 42.2388 44.2144 42.0253 44.4504 42.1669C44.7686 42.3578 45.0078 42.6386 45.2635 42.9032C45.4005 43.0448 45.6378 43.2144 45.6453 43.4312C45.6659 44.0272 45.4829 44.386 45.3934 44.9749C45.2969 45.61 45.0668 46.4329 44.9747 47.0686C44.8673 47.8092 45.0345 48.5385 44.7777 49.2519C44.5141 49.9839 43.9737 50.8535 43.1936 51.1136C42.9398 51.1982 42.4317 50.9367 42.2317 50.7987C42.0352 50.6632 41.8625 50.4252 41.7384 50.2236C41.4833 49.8091 41.401 49.389 41.2724 48.9296C41.0882 48.2718 41.054 47.5557 40.9898 46.8795C40.9276 46.225 40.9131 45.5753 40.9154 44.9186Z" fill="#F6F6F6" stroke="#0C0A00" stroke-width="0.5" stroke-linecap="round"/>
<path d="M44.979 47.5584C44.9841 46.1674 45.1205 44.5356 45.8868 43.3066C45.9855 43.3533 46.1357 42.8091 46.2309 42.8811C46.4105 43.0168 46.6587 43.4552 46.8304 43.5948C47.1077 43.8202 47.3869 43.7077 47.654 43.9601C47.8431 44.1387 48.3247 43.3596 48.3247 44.1376C48.6329 44.3123 49.1838 44.3055 49.4316 44.5477C49.5642 44.6774 49.9399 44.8416 49.9471 45.04C49.967 45.5855 49.8428 47.1627 49.756 47.7017C49.6625 48.283 49.5208 48.7712 49.4316 49.3531C49.3276 50.0309 48.9695 50.8715 48.7207 51.5244C48.4654 52.1944 48.2187 52.7021 47.4629 52.9401C47.2171 53.0176 46.5101 52.9874 46.3164 52.8612C46.1253 52.6701 45.8965 52.5983 45.7763 52.4138C45.5292 52.0344 45.4494 51.6499 45.3248 51.2294C45.1464 50.6274 45.1133 49.972 45.051 49.3531C44.9908 48.7541 44.9767 48.1595 44.979 47.5584Z" fill="#F6F6F6" stroke="#0C0A00" stroke-width="0.5" stroke-linecap="round"/>
<path d="M56.4653 48.7878C56.7578 47.6716 56.9461 46.3208 56.2994 45.0921C56.172 45.0981 56.4094 44.5288 56.2808 44.5561C56.0383 44.6077 55.6773 44.9176 55.4433 44.9748C55.0653 45.0671 54.5587 44.8576 54.1871 44.9748C53.924 45.0577 52.6791 44.3515 52.5121 44.9748C52.1082 45.0166 52.167 44.8427 51.8206 44.9578C51.6351 45.0194 51.1534 45.0314 51.1022 45.1881C50.9615 45.6188 50.7705 46.9221 50.7579 47.3815C50.7442 47.877 50.8078 48.3133 50.7889 48.8079C50.767 49.3841 51.0121 50.1716 51.1676 50.7739C51.3271 51.392 51.5112 51.8774 52.3582 52.3087C52.6337 52.449 53.4803 52.65 53.7376 52.6105C54.0057 52.5183 54.2931 52.5336 54.4755 52.424C54.8506 52.1987 55.0279 51.9161 55.2663 51.6189C55.6076 51.1933 55.7876 50.6788 55.9944 50.2027C56.1946 49.742 56.3389 49.2701 56.4653 48.7878Z" fill="#F6F6F6" stroke="#0C0A00" stroke-width="0.5" stroke-linecap="round"/>
<path d="M61.412 46.3296C61.4068 45.3405 61.2705 44.1804 60.5046 43.3066C60.4059 43.3398 60.1652 43.4604 60.0701 43.5115C59.8906 43.608 59.6872 43.672 59.5156 43.7712C59.2383 43.9315 59.0052 43.5918 58.7381 43.7712C58.7934 44.1376 58.3747 43.5845 58.3747 44.1376C58.0665 44.2618 57.3661 44.3842 57.1184 44.5563C56.9858 44.6485 56.4532 44.398 56.446 44.539C56.4261 44.9268 56.5503 46.0482 56.637 46.4314C56.7305 46.8447 56.8721 47.1918 56.9613 47.6055C57.0653 48.0874 57.4232 48.6851 57.6719 49.1493C57.9271 49.6256 58.1737 49.9866 58.9291 50.1558C59.1748 50.2109 59.8815 50.1894 60.0752 50.0997C60.2662 49.9638 60.4949 49.9128 60.615 49.7816C60.862 49.5118 60.9418 49.2385 61.0663 48.9396C61.2447 48.5115 61.2778 48.0456 61.34 47.6055C61.4002 47.1797 61.4142 46.7569 61.412 46.3296Z" fill="#F6F6F6" stroke="#0C0A00" stroke-width="0.5" stroke-linecap="round"/>
<path d="M39.1299 34.8447C38.231 34.962 39.8885 37.0358 40.1162 37.3044C40.6948 37.9869 41.1671 38.7568 41.754 39.4414C42.3066 40.0862 42.0435 39.5311 43.7185 41.2061C47.0685 44.1374 49.2464 44.8175 52.7252 44.8175C54.089 44.8175 55.3906 44.7841 56.7375 44.5983C58.2658 44.3875 59.9345 43.3847 61.1089 42.3882C62.1777 41.4814 63.1256 40.1814 63.5078 38.8265C63.864 37.5634 64.4805 36.2426 64.6645 34.9543" stroke="#0C0A00" stroke-linecap="round"/>
<path d="M43 24.341C43 24.8343 43.0695 25.2997 43.242 25.7642C43.3613 26.0856 43.7988 26.0751 43.9397 25.7533C44.0531 25.4944 43.9972 24.8154 43.8497 24.5574C43.7845 24.4435 43.1575 23.9947 43.1519 24" stroke="#0C0A00" stroke-width="3" stroke-linecap="round"/>
</svg>
