<svg width="100" height="100" viewBox="0 0 100 100" fill="none" xmlns="http://www.w3.org/2000/svg">
<rect width="100" height="100" rx="50" fill="#006C65"/>
<path d="M42.1462 34.0662C42.1462 30.7766 40.6507 27.8431 39.0383 24.9028C38.7903 24.4507 35.9578 20.6936 36.8126 21.5141C37.8052 22.467 39.1262 23.0891 39.9807 24.1809C41.4275 26.0297 42.7777 27.5632 43.4495 29.8554C44.0189 31.7981 44.8612 33.5584 45.595 35.4296C45.7621 35.8557 45.7554 37.2507 45.7554 36.7931V31.3592C45.7554 28.1801 45.1222 24.636 45.4747 21.5141C45.5691 20.6777 45.8152 18.148 46.1965 20.3511C46.5336 22.2987 46.8382 24.1696 46.8382 26.1459V29.294C46.8382 29.5445 46.9062 31.6722 46.9986 31.5798C47.7387 30.8397 47.7548 29.1423 47.941 28.2112C48.3811 26.0109 48.8384 24.1882 50.0865 22.3162C50.7224 21.3622 57.0217 13.9849 57.5856 14.7368C58.5386 16.0074 56.9027 20.1554 56.583 21.4339C55.9549 23.9467 55.3219 26.4519 54.5816 28.9207C56.0594 26.4067 58.0348 25.4593 60.5331 23.9604C61.2502 23.5301 66.2515 21.2432 66.8092 22.6771C67.1148 23.4629 62.9928 26.1478 62.3979 26.8277C61.3098 28.0712 60.6533 29.598 59.4704 30.8179C58.8151 31.4937 58.9434 31.493 59.7511 31.1587C61.5426 30.4174 63.4801 30.4569 65.3855 30.4569C70.2659 30.4569 74.2702 31.162 78.4389 33.986C78.5653 34.0716 80.7908 35.7275 80.4039 35.8307C77.9892 36.4746 74.5878 35.9296 72.1027 35.8507C71.3238 35.826 64.9752 35.1029 66.0071 36.1114C68.4443 38.4932 71.8532 39.4464 74.4687 41.5653C77.5568 44.067 80.0353 46.1896 81.627 49.9267C82.0324 50.8785 84.1871 55.9713 81.9278 54.4382C80.4487 53.4345 78.5775 51.7546 76.7947 51.4305C75.413 51.1793 74.0426 51.1045 72.6641 50.7488C71.8822 50.547 70.0131 49.6986 70.258 50.468C70.6851 51.8106 73.9398 53.148 75.0302 53.8366C76.5564 54.8006 78.1898 55.9168 79.281 57.3857C81.1292 59.8736 81.755 62.7432 82.8501 65.5465C83.2299 66.5189 83.6121 67.7387 83.6121 68.7948C83.6121 69.4978 81.6056 67.914 81.4465 67.8123C79.3182 66.4526 77.1989 65.4007 74.6893 65.1054C71.612 64.7434 73.2224 65.8742 73.9073 68.073C74.6496 70.4563 74.9901 72.9574 74.9901 75.4518C74.9901 78.2212 74.0273 80.7928 73.9073 83.4322C73.778 86.2759 70.2475 84.6136 68.1726 84.2342C63.8488 83.4436 59.774 83.6574 55.4 83.4924C48.3997 83.2282 41.0828 82.9862 34.226 84.4147C33.158 84.6372 31.8239 85.317 30.7772 85.317C29.7436 85.317 29.7541 82.1424 29.5139 81.2667C28.1434 76.2682 28.9717 71.8463 30.4363 66.9902C30.6678 66.2225 31.4368 63.3326 31.3987 63.381C29.7968 65.4198 28.548 67.7941 26.7469 69.6771C25.7353 70.7346 24.8092 71.7965 24.1001 73.0858C23.9592 73.342 22.4292 76.4208 22.3156 75.512C22.039 73.2997 21.9162 71.3185 22.2153 69.0755C22.7104 65.362 25.5019 61.5793 27.4687 58.4885C28.9293 56.1933 30.6564 54.1027 32.7021 52.3127C33.7528 51.3934 29.8836 52.1692 28.5515 51.7513C25.4815 50.7882 22.0232 51.5111 19.6086 53.6161C18.4521 54.6243 17.7313 55.9157 16.8817 57.1651C15.7542 58.8232 16.8892 55.228 17.0421 54.7991C17.9228 52.3283 20.5159 50.4199 21.9145 48.1822C24.3396 44.3021 28.3742 42.3674 32.9026 42.3674C34.1118 42.3674 34.7517 42.5506 34.3663 41.064C33.8535 39.0861 32.6397 36.9534 31.1581 35.5098C30.4592 34.8289 27.3296 33.1616 24.9143 32.2294C22.8683 31.9999 21.1352 31.7274 22.3156 31.5798C22.8107 31.5179 23.7843 31.7932 24.9143 32.2294C26.8366 32.445 29.0353 32.6225 29.3535 32.6225C31.1427 32.6225 33.2232 32.3299 34.9077 33.0235C35.7224 33.359 38.3419 34.548 38.8177 35.3093C39.4221 36.2764 40.4651 35.5855 41.4043 36.2116C41.8961 36.5395 42.0077 34.551 42.1462 34.0662Z" fill="#FAF353" stroke="#0C0A00" stroke-linecap="round"/>
<path d="M41.766 45.8889C41.4022 45.8446 41.1668 45.803 40.8998 45.645C40.4805 45.645 40.6234 46.1886 40.6234 46.3586C40.6234 46.804 40.5539 47.2703 40.6322 47.7132C40.6489 47.8075 40.7249 47.8932 40.7594 47.9857C40.8062 48.1111 40.8437 48.2366 40.9085 48.3594C41.0375 48.6035 41.0751 48.8645 41.1958 49.1106C41.249 49.2189 41.3622 49.3049 41.4502 49.4038C41.5468 49.5123 41.6187 49.6279 41.7288 49.7321C41.8714 49.8672 42.0314 50.0233 42.1235 50.1732C42.1731 50.254 42.3151 50.2967 42.3779 50.3744C42.4682 50.4861 42.5908 50.5924 42.7507 50.6741C43.0237 50.8136 43.245 50.9444 43.4262 51.1282C43.7417 51.4482 44.289 51.5851 44.8561 51.6809C45.7972 51.84 46.6831 51.7373 47.6084 51.6005C47.994 51.5434 48.5361 51.3091 48.6984 51.0919C48.7424 51.0328 48.864 51.0102 48.8738 50.9465C48.8818 50.8942 48.926 50.8415 48.944 50.7883C48.9925 50.6448 49.0962 50.5365 49.1874 50.4016C49.4199 50.0577 49.4265 49.6536 49.4265 49.2858C49.4265 48.8511 49.5348 48.4278 49.5449 47.9935C49.5496 47.7917 49.6238 47.595 49.6238 47.3914C49.6238 47.2868 49.6559 46.8595 49.3848 46.8595C49.0155 46.8595 48.6535 46.8553 48.2861 46.8309C47.6322 46.7875 46.9702 46.7639 46.3254 46.683C45.61 46.5932 44.9045 46.4794 44.1982 46.369C43.8815 46.3195 43.5722 46.256 43.2551 46.2068C43.0647 46.1773 42.8594 46.1687 42.6849 46.1121C42.402 46.0203 42.0809 45.9273 41.766 45.8889Z" fill="#F6F6F6"/>
<path d="M49.8905 47.6319C49.9666 47.4118 50.0521 47.191 50.0521 46.967C50.5815 46.967 51.1639 47.0442 51.664 46.9304C52.0073 46.8523 52.3838 46.9215 52.7397 46.8857C53.1542 46.8441 53.5313 46.8431 53.9461 46.8186C54.7246 46.7725 55.5141 46.8571 56.2866 46.7759C56.4979 46.7537 56.6582 46.691 56.8571 46.6539C57.067 46.6148 56.9782 46.5119 57.1971 46.486C57.5891 46.4396 58.3066 46.5103 58.6993 46.4628C59.4173 46.3759 59.8826 46.2036 60.4762 45.9605C60.7377 45.8534 61.1083 45.7729 61.4213 45.7592C61.5656 45.7529 61.717 45.6769 61.8681 45.6575C62.0008 45.6406 62.1751 45.5235 62.268 45.4547C62.3854 45.3679 63.0804 45.1014 63.2635 45.0797C63.3198 45.073 63.4823 45.3412 63.5357 45.361C63.6741 45.4121 63.6192 45.6561 63.6942 45.736L63.7227 45.7663C64.1928 46.2669 64.6942 46.8006 64.9613 47.3696C65.1397 47.7495 64.9278 48.0592 64.8926 48.4548C64.8734 48.671 64.933 48.8384 64.8926 49.0533C64.8635 49.2081 64.7864 49.391 64.7139 49.5413C64.631 49.7129 64.3803 49.8553 64.3427 50.0334C64.3125 50.1764 63.9561 50.2007 63.8527 50.3299C63.6351 50.6017 63.466 50.6971 63.0603 50.8925C62.5875 51.1202 62.2206 51.5285 61.6619 51.6722C61.2423 51.7802 61.0286 51.9813 60.538 51.9813C59.7143 51.9813 58.8131 52.205 57.9894 52.205C56.486 52.205 55.0517 51.9911 53.6196 51.6885C53.053 51.5688 52.3335 51.5254 51.8092 51.3612C51.4218 51.2398 50.4587 50.8289 50.2245 50.6112C49.8894 50.2996 50.1619 50.0815 49.8974 49.7324C49.637 49.3888 49.619 48.9965 49.619 48.6222C49.619 48.2531 49.7664 47.991 49.8905 47.6319Z" fill="#F6F6F6"/>
<path d="M38.8147 44.8429C39.2512 44.9849 39.6554 45.1865 40.076 45.3451C41.3426 45.8228 42.7077 46.0518 44.1591 46.25C45.081 46.3758 45.9316 46.5711 46.888 46.5997C48.1909 46.6388 49.4211 46.9291 50.727 46.9291C51.3786 46.9291 52.035 46.9432 52.686 46.9251C53.3268 46.9072 53.9555 46.7983 54.5901 46.7461C55.2455 46.6923 55.875 46.579 56.5182 46.4899C57.2183 46.393 57.929 46.3545 58.6319 46.2703C59.1621 46.2068 59.7045 46.1462 60.206 46.0222C61.0956 45.8024 61.8711 45.4386 62.7218 45.1723C63.5221 44.9218 64.2923 44.6035 64.8595 44.1841" stroke="#0C0A00" stroke-linecap="round"/>
<path d="M54.9778 46.8994C54.8263 46.9292 54.9246 47.1299 54.9638 47.1817C55.1036 47.3666 55.3164 47.5264 55.6341 47.618C55.757 47.6534 55.9025 47.6454 56.0343 47.6611C56.1733 47.6775 56.3173 47.7245 56.4612 47.7157C56.9036 47.6886 57.1414 47.4904 57.2196 47.2521C57.2811 47.0647 57.3763 46.8921 57.0713 46.7603C56.7865 46.6372 56.2936 46.665 55.9588 46.6767C55.6267 46.6882 55.2363 46.7709 55.2059 46.9954C55.1833 47.1627 55.5033 47.2669 55.7083 47.3514C55.8492 47.4095 56.0058 47.43 56.1715 47.4499C56.4072 47.4783 56.524 47.4384 56.6711 47.3299C56.7882 47.2435 56.9485 47.1639 56.9621 47.0451C56.9818 46.8739 56.6745 46.8147 56.4472 46.7826C56.2022 46.7481 55.8987 46.7313 55.6579 46.7901C55.5224 46.8232 55.3207 46.8973 55.3696 47.0004C55.4539 47.178 55.8993 47.2455 56.1631 47.2653C56.3341 47.2781 56.5331 47.2817 56.6991 47.2471C56.8127 47.2234 56.9177 47.1418 56.7998 47.0798C56.7166 47.0361 56.5906 47.0387 56.4933 47.0592C56.4741 47.0632 56.3884 47.1092 56.3884 47.0881C56.3884 46.9675 56.1022 46.8678 55.9266 46.8464C55.7634 46.8265 55.716 46.9583 55.788 47.0244C55.8861 47.1144 56.4419 47.1822 56.5479 47.0716C56.6698 46.9445 56.0861 46.8942 56.0861 47.0037" stroke="#0C0A00" stroke-linecap="round"/>
<path d="M44.4739 46.5413C44.4739 46.5324 44.4071 46.5958 44.3899 46.6125C44.3508 46.6508 44.3318 46.6952 44.3172 46.7384C44.2802 46.8476 44.267 46.958 44.2724 47.0695C44.2797 47.2205 44.443 47.3029 44.625 47.3941C44.8025 47.4829 44.9733 47.4838 45.2072 47.4802C45.5915 47.4743 45.8099 47.3029 45.9881 47.1225C46.1184 46.9905 46.1642 46.752 45.9237 46.6605C45.671 46.5644 45.3551 46.6052 45.1036 46.5115C45.0032 46.4741 44.8363 46.416 44.7202 46.4022C44.4983 46.376 44.5033 46.4289 44.4123 46.5231C44.3365 46.6016 44.3427 46.7734 44.3787 46.8609C44.4195 46.9597 44.5916 47.1481 44.7482 47.197C44.8758 47.2369 45.0296 47.228 45.168 47.2268C45.3671 47.2251 45.5074 47.2092 45.6074 47.1026C45.7912 46.9069 45.294 46.6803 45.0029 46.6489C44.8441 46.6319 44.7298 46.7015 44.6922 46.7897C44.6415 46.9086 44.6926 46.9903 44.9049 47.0149C45.1319 47.0411 45.4864 47.0424 45.4507 46.8543C45.4166 46.6744 45.0769 46.6567 44.8377 46.6936C44.6547 46.7219 44.5922 46.8936 44.7706 46.9486C44.9139 46.9929 45.1173 47.0264 45.1792 46.9288" stroke="#0C0A00" stroke-linecap="round"/>
<path d="M49.4776 46.921C49.4776 47.1165 49.572 47.31 49.5765 47.5025C49.5841 47.8337 49.5765 48.1653 49.5765 48.4965C49.5765 49.0134 49.5861 49.5457 49.3678 50.0493C49.1442 50.5652 48.8348 51.1963 48.0939 51.5372C47.6517 51.7407 47.2229 51.8913 46.6608 51.8913C46.0667 51.8913 45.5181 51.8496 44.934 51.8036C44.5591 51.774 44.332 51.6202 43.995 51.5404C43.7175 51.4748 43.3805 51.2383 43.1906 51.1019C43.0205 50.9797 42.8828 50.8362 42.7459 50.6991C42.5581 50.511 42.3383 50.346 42.1391 50.1647C41.9433 49.9864 41.7715 49.8076 41.6422 49.6108C41.5744 49.5076 41.4437 49.4398 41.3512 49.346C41.2346 49.2278 41.1812 49.1164 41.1151 48.9903C40.95 48.6756 40.9193 48.3406 40.7554 48.0304C40.5387 47.62 40.4342 47.2469 40.4342 46.8203C40.4342 46.5941 40.4766 46.3733 40.4836 46.1478C40.4914 45.8978 40.7579 45.6753 41.0272 45.4933C41.2539 45.34 41.4776 45.1667 41.7191 45.0238C41.9323 44.8977 42.1298 44.7306 42.3615 44.6178C42.6518 44.4764 42.7664 44.2723 43.0918 44.1597C43.5058 44.0165 43.9325 43.9675 44.3931 43.8934C44.7052 43.8431 45.0651 43.773 45.3897 43.765C45.7428 43.7563 46.0852 43.7734 46.4357 43.7926C46.8012 43.8128 47.082 43.9552 47.3472 44.0964C47.6159 44.2395 48 44.2927 48.3191 44.3871C48.6713 44.4913 49.022 44.6513 49.28 44.8257C49.541 45.0022 49.7969 45.1928 50.0103 45.3909C50.2728 45.6347 50.57 45.89 50.79 46.1478C51.0953 46.5057 51.2096 46.9002 51.3775 47.2832C51.4586 47.4684 51.4327 47.7196 51.3308 47.9004C51.2808 47.9893 51.2472 48.2541 51.1084 48.2951" stroke="#0C0A00" stroke-linecap="round"/>
<path d="M48.4933 45.6085C48.581 45.4614 48.7077 45.2956 48.8551 45.1647C49.0479 44.9937 49.3691 44.8909 49.5679 44.7262C49.9118 44.4414 50.448 44.286 50.9013 44.0788C51.4587 43.8239 52.1356 43.6399 52.818 43.5351C53.1521 43.4838 53.4816 43.4623 53.8049 43.3911C54.1874 43.3069 54.6246 43.2408 55.0243 43.1913C55.3991 43.1449 55.7464 43.0898 56.134 43.1199C56.5601 43.153 56.9899 43.2263 57.4213 43.2263C57.7837 43.2263 58.1458 43.2899 58.4806 43.3664C58.7333 43.4242 58.9828 43.4447 59.2306 43.5169C59.5326 43.605 59.8789 43.7135 60.1407 43.8374C60.3905 43.9556 60.6801 44.0405 60.928 44.1605C61.1346 44.2605 61.3984 44.321 61.6298 44.3992C61.8121 44.4609 61.966 44.5459 62.143 44.612C62.3044 44.6724 62.4764 44.7064 62.6167 44.7859C63.0139 45.0109 63.527 45.1948 63.722 45.5203C63.8362 45.7108 64.0278 45.871 64.1497 46.0613C64.3594 46.389 64.547 46.7211 64.6584 47.0656C64.7971 47.494 64.7966 47.9146 64.7966 48.3514C64.7966 48.725 64.8473 49.0809 64.6387 49.4374C64.4693 49.7269 64.2793 50.0765 63.8887 50.2911C63.5167 50.4955 63.2939 50.8014 62.95 51.019C62.8172 51.1031 62.727 51.2185 62.6255 51.3161C62.5331 51.4049 62.2913 51.442 62.1671 51.5198C62.0217 51.6109 61.7851 51.6519 61.5991 51.7093C61.4372 51.7593 61.3055 51.8419 61.1254 51.8727C60.3141 52.0117 59.4972 52.1335 58.6779 52.2412C58.3013 52.2907 57.8877 52.2646 57.5024 52.2646C57.0706 52.2646 56.6474 52.2824 56.2326 52.2088C55.7727 52.1272 55.2907 52.1014 54.8269 52.031C54.2728 51.947 53.7273 51.8805 53.1777 51.7845C52.9669 51.7477 52.7507 51.7309 52.5395 51.7015C52.2353 51.6591 51.9828 51.5265 51.7325 51.4277C51.3615 51.2814 50.975 51.1572 50.6995 50.9412C50.5468 50.8213 50.3476 50.7228 50.1885 50.6051C50.0626 50.512 49.9616 50.4079 49.853 50.308C49.7385 50.2026 49.717 50.0174 49.717 49.8941C49.717 49.542 49.798 49.2104 49.6425 48.8652C49.5841 48.7356 49.6381 48.5542 49.6381 48.4188C49.6381 48.2091 49.5978 47.9806 49.6688 47.7753C49.7575 47.5186 49.8118 47.2807 50.1118 47.1032" stroke="#0C0A00" stroke-linecap="round"/>
<path d="M41.5896 58.0671C44.3841 57.8808 47.1048 57.9501 49.8959 57.9501" stroke="#FAF353" stroke-width="3" stroke-linecap="round"/>
<path d="M45.0178 57.9459C44.836 57.6964 44.7231 57.432 44.7037 57.1219C45.0925 56.9275 45.7797 56.9633 46.2049 57.0628C46.8656 57.2174 47.5319 57.3063 48.2077 57.3617C48.4096 57.3782 48.7647 57.2963 48.667 57.5896C48.6317 57.6955 48.5299 57.7698 48.4846 57.8818C48.3819 58.1354 48.1794 58.3842 48.0337 58.6146C47.7379 59.0826 47.4706 59.568 47.1759 60.0365C47.0778 60.1925 46.9658 60.3561 46.8112 60.462C46.7258 60.5205 46.6043 60.4403 46.5579 60.3607C46.4084 60.1044 46.2232 59.8572 46.0411 59.6211C45.9168 59.4598 45.8665 59.265 45.7507 59.101C45.6387 58.9423 45.5317 58.782 45.4163 58.6248C45.2604 58.4121 45.1743 58.1606 45.0178 57.9459Z" fill="#F6F6F6"/>
<path d="M48.8808 57.9667C48.722 57.719 48.6235 57.4565 48.6066 57.1487C48.946 56.9557 49.5459 56.9912 49.9171 57.09C50.4939 57.2435 51.0756 57.3318 51.6656 57.3867C51.8418 57.4031 52.1519 57.3218 52.0665 57.613C52.0357 57.7181 51.9469 57.7919 51.9073 57.903C51.8177 58.1548 51.6409 58.4018 51.5137 58.6305C51.2555 59.0951 51.0221 59.5769 50.7648 60.042C50.6791 60.1968 50.5814 60.3593 50.4464 60.4644C50.3719 60.5224 50.2658 60.4429 50.2253 60.3638C50.0947 60.1094 49.9331 59.8641 49.7741 59.6296C49.6656 59.4695 49.6217 59.2761 49.5206 59.1133C49.4228 58.9558 49.3294 58.7967 49.2287 58.6406C49.0925 58.4295 49.0173 58.1798 48.8808 57.9667Z" fill="#F6F6F6"/>
<path d="M52.6712 57.9667C52.5124 57.719 52.4139 57.4565 52.397 57.1487C52.7364 56.9557 53.3363 56.9912 53.7075 57.09C54.2843 57.2435 54.866 57.3318 55.456 57.3867C55.6322 57.4031 55.9423 57.3218 55.8569 57.613C55.8261 57.7181 55.7373 57.7919 55.6977 57.903C55.6081 58.1548 55.4313 58.4018 55.3041 58.6305C55.0459 59.0951 54.8125 59.5769 54.5552 60.042C54.4696 60.1968 54.3718 60.3593 54.2368 60.4644C54.1623 60.5224 54.0562 60.4429 54.0157 60.3638C53.8851 60.1094 53.7235 59.8641 53.5645 59.6296C53.456 59.4695 53.4121 59.2761 53.311 59.1133C53.2132 58.9558 53.1198 58.7967 53.0191 58.6406C52.8829 58.4295 52.8077 58.1798 52.6712 57.9667Z" fill="#F6F6F6"/>
<path d="M56.1955 58.1407C56.0079 57.848 55.8915 57.5378 55.8715 57.1739C56.2726 56.9459 56.9816 56.9878 57.4203 57.1046C58.1019 57.286 58.7894 57.3904 59.4866 57.4553C59.695 57.4747 60.0614 57.3786 59.9605 57.7227C59.9241 57.8469 59.8191 57.9341 59.7724 58.0654C59.6664 58.363 59.4574 58.6549 59.3072 58.9252C59.002 59.4743 58.7261 60.0437 58.4221 60.5933C58.3209 60.7763 58.2053 60.9683 58.0458 61.0925C57.9577 61.1611 57.8324 61.0671 57.7845 60.9737C57.6302 60.673 57.4392 60.383 57.2513 60.1059C57.123 59.9167 57.0711 59.6882 56.9517 59.4958C56.8361 59.3096 56.7257 59.1216 56.6067 58.9371C56.4458 58.6876 56.3569 58.3926 56.1955 58.1407Z" fill="#F6F6F6"/>
<path d="M41.9406 56.6641C46.8512 57.3386 51.8119 57.132 56.7593 57.132C59.58 57.132 62.4008 57.132 65.2215 57.132" stroke="#0C0A00" stroke-linecap="round"/>
<path d="M44.7482 57.0146C45.0609 58.3809 45.7653 59.7335 46.607 60.8558C47.0486 61.4446 47.2353 60.7038 47.4389 60.2319C47.8147 59.3608 48.5549 58.5804 48.8428 57.7166" stroke="#0C0A00" stroke-linecap="round"/>
<path d="M49.1937 57.5996C49.1937 58.1736 49.2893 58.734 49.4342 59.2895C49.5695 59.8081 49.6376 60.3859 49.8437 60.8753C50.0835 61.4449 50.5605 60.0868 50.7081 59.7639C51.049 59.0181 51.4668 58.4127 51.8845 57.7166" stroke="#0C0A00" stroke-linecap="round"/>
<path d="M52.2356 57.8335C52.5512 58.3971 53.0627 59.0082 53.2365 59.6403C53.2821 59.8061 53.5237 61.3946 53.8865 61.0117C54.2998 60.5754 54.301 59.9991 54.5754 59.4974C54.9022 58.8998 55.3008 58.3335 55.7453 57.8335" stroke="#0C0A00" stroke-linecap="round"/>
<path d="M56.1871 57.7993C56.194 57.9432 57.3068 61.4344 57.4479 61.4344C57.5984 61.4344 58.14 60.8089 58.2084 60.7454C58.8107 60.1861 59.3269 59.5448 59.8007 58.8736C60.1469 58.3832 60.3477 57.7936 60.7756 57.3657" stroke="#0C0A00" stroke-linecap="round"/>
</svg>
