<svg width="100" height="100" viewBox="0 0 100 100" fill="none" xmlns="http://www.w3.org/2000/svg">
<rect width="100" height="100" rx="50" fill="#FAF353"/>
<path d="M44.8633 55.1426C44.8633 54.7259 45.0065 54.3776 45.293 54.0977C45.5859 53.8177 45.9733 53.6777 46.4551 53.6777C46.9368 53.6777 47.321 53.8177 47.6074 54.0977C47.9004 54.3776 48.0469 54.7259 48.0469 55.1426C48.0469 55.5592 47.9004 55.9076 47.6074 56.1875C47.321 56.4674 46.9368 56.6074 46.4551 56.6074C45.9733 56.6074 45.5859 56.4674 45.293 56.1875C45.0065 55.9076 44.8633 55.5592 44.8633 55.1426ZM44.8633 47.0859C44.8633 46.6693 45.0065 46.321 45.293 46.041C45.5859 45.7611 45.9733 45.6211 46.4551 45.6211C46.9368 45.6211 47.321 45.7611 47.6074 46.041C47.9004 46.321 48.0469 46.6693 48.0469 47.0859C48.0469 47.5026 47.9004 47.8509 47.6074 48.1309C47.321 48.4108 46.9368 48.5508 46.4551 48.5508C45.9733 48.5508 45.5859 48.4108 45.293 48.1309C45.0065 47.8509 44.8633 47.5026 44.8633 47.0859ZM55.2344 50.7188V50.9336C55.2344 52.2617 55.0846 53.4857 54.7852 54.6055C54.4857 55.7188 54.0885 56.7051 53.5938 57.5645C53.1055 58.4303 52.5684 59.1497 51.9824 59.7227C51.403 60.2956 50.8236 60.7057 50.2441 60.9531L49.6973 59.5078C50.0684 59.2344 50.4297 58.8568 50.7812 58.375C51.1393 57.8932 51.4648 57.3008 51.7578 56.5977C52.0508 55.901 52.2819 55.084 52.4512 54.1465C52.627 53.209 52.7148 52.1445 52.7148 50.9531V50.6992C52.7148 49.5078 52.627 48.4434 52.4512 47.5059C52.2754 46.5684 52.0378 45.7513 51.7383 45.0547C51.4453 44.3516 51.1198 43.7624 50.7617 43.2871C50.4102 42.8053 50.0553 42.4277 49.6973 42.1543L50.2441 40.6992C50.8236 40.9466 51.403 41.36 51.9824 41.9395C52.5684 42.5124 53.1055 43.2285 53.5938 44.0879C54.0885 44.9473 54.4857 45.9368 54.7852 47.0566C55.0846 48.1699 55.2344 49.3906 55.2344 50.7188Z" fill="#0C0A00"/>
</svg>
