<svg width="100" height="100" viewBox="0 0 100 100" fill="none" xmlns="http://www.w3.org/2000/svg">
<rect width="100" height="100" rx="50" fill="#006C65"/>
<path d="M55.1172 55.1426C55.1172 54.7259 54.974 54.3776 54.6875 54.0977C54.3945 53.8177 54.0072 53.6777 53.5254 53.6777C53.0436 53.6777 52.6595 53.8177 52.373 54.0977C52.0801 54.3776 51.9336 54.7259 51.9336 55.1426C51.9336 55.5592 52.0801 55.9076 52.373 56.1875C52.6595 56.4674 53.0436 56.6074 53.5254 56.6074C54.0072 56.6074 54.3945 56.4674 54.6875 56.1875C54.974 55.9076 55.1172 55.5592 55.1172 55.1426ZM55.1172 47.0859C55.1172 46.6693 54.974 46.321 54.6875 46.041C54.3945 45.7611 54.0072 45.6211 53.5254 45.6211C53.0436 45.6211 52.6595 45.7611 52.373 46.041C52.0801 46.321 51.9336 46.6693 51.9336 47.0859C51.9336 47.5026 52.0801 47.8509 52.373 48.1309C52.6595 48.4108 53.0436 48.5508 53.5254 48.5508C54.0072 48.5508 54.3945 48.4108 54.6875 48.1309C54.974 47.8509 55.1172 47.5026 55.1172 47.0859ZM49.4531 50.9336V50.7188C49.4531 49.3451 49.3099 48.0983 49.0234 46.9785C48.7305 45.8587 48.3464 44.8757 47.8711 44.0293C47.3893 43.1764 46.8652 42.4701 46.2988 41.9102C45.7324 41.3503 45.1693 40.9466 44.6094 40.6992L44.0723 42.1836C44.4434 42.457 44.8079 42.8346 45.166 43.3164C45.5241 43.7917 45.8496 44.3776 46.1426 45.0742C46.429 45.7643 46.6602 46.5781 46.8359 47.5156C47.0117 48.4466 47.0996 49.5078 47.0996 50.6992V50.9531C47.0996 52.1445 47.0117 53.209 46.8359 54.1465C46.6602 55.0775 46.429 55.8913 46.1426 56.5879C45.8496 57.291 45.5241 57.8835 45.166 58.3652C44.8079 58.847 44.4434 59.2279 44.0723 59.5078L44.6094 60.9531C45.1693 60.7057 45.7324 60.3021 46.2988 59.7422C46.8652 59.1888 47.3893 58.4857 47.8711 57.6328C48.3464 56.7865 48.7305 55.8034 49.0234 54.6836C49.3099 53.5573 49.4531 52.3073 49.4531 50.9336Z" fill="#FAF353"/>
</svg>
