<svg width="100" height="100" viewBox="0 0 100 100" fill="none" xmlns="http://www.w3.org/2000/svg">
<rect width="100" height="100" rx="50" fill="#888888"/>
<path d="M50.7188 38.4102L50.9336 38.4102C52.2617 38.4102 53.4857 38.5599 54.6055 38.8594C55.7188 39.1589 56.7051 39.556 57.5645 40.0508C58.4303 40.5391 59.1497 41.0762 59.7227 41.6621C60.2956 42.2415 60.7057 42.821 60.9531 43.4004L59.5078 43.9473C59.2344 43.5762 58.8568 43.2148 58.375 42.8633C57.8932 42.5052 57.3008 42.1797 56.5977 41.8867C55.901 41.5938 55.084 41.3626 54.1465 41.1934C53.209 41.0176 52.1445 40.9297 50.9531 40.9297L50.6992 40.9297C49.5078 40.9297 48.4434 41.0176 47.5059 41.1934C46.5684 41.3691 45.7513 41.6068 45.0547 41.9063C44.3516 42.1992 43.7624 42.5247 43.2871 42.8828C42.8053 43.2344 42.4277 43.5892 42.1543 43.9473L40.6992 43.4004C40.9466 42.821 41.36 42.2415 41.9395 41.6621C42.5124 41.0762 43.2285 40.5391 44.0879 40.0508C44.9473 39.556 45.9368 39.1589 47.0566 38.8594C48.1699 38.5599 49.3906 38.4102 50.7188 38.4102ZM55.1426 36.1055C54.7259 36.1055 54.3776 35.9622 54.0977 35.6758C53.8177 35.3828 53.6777 34.9954 53.6777 34.5137C53.6777 34.0319 53.8177 33.6478 54.0977 33.3613C54.3776 33.0684 54.7259 32.9219 55.1426 32.9219C55.5592 32.9219 55.9076 33.0684 56.1875 33.3613C56.4674 33.6478 56.6074 34.0319 56.6074 34.5137C56.6074 34.9954 56.4674 35.3828 56.1875 35.6758C55.9076 35.9622 55.5592 36.1055 55.1426 36.1055ZM47.0859 36.1055C46.6693 36.1055 46.321 35.9622 46.041 35.6758C45.7611 35.3828 45.6211 34.9954 45.6211 34.5137C45.6211 34.0319 45.7611 33.6478 46.041 33.3613C46.321 33.0684 46.6693 32.9219 47.0859 32.9219C47.5026 32.9219 47.8509 33.0684 48.1309 33.3613C48.4108 33.6478 48.5508 34.0319 48.5508 34.5137C48.5508 34.9954 48.4108 35.3828 48.1309 35.6758C47.8509 35.9622 47.5026 36.1055 47.0859 36.1055Z" fill="#0C0A00"/>
<path d="M29.1772 56.5V50.6818H31.2113C31.6166 50.6818 31.9509 50.7519 32.2141 50.892C32.4774 51.0303 32.6734 51.2169 32.8022 51.4517C32.931 51.6847 32.9954 51.9432 32.9954 52.2273C32.9954 52.4773 32.9509 52.6837 32.8619 52.8466C32.7747 53.0095 32.6592 53.1383 32.5153 53.233C32.3732 53.3277 32.2189 53.3977 32.0522 53.4432V53.5C32.2302 53.5114 32.4092 53.5739 32.5891 53.6875C32.7691 53.8011 32.9196 53.964 33.0408 54.1761C33.1621 54.3883 33.2227 54.6477 33.2227 54.9545C33.2227 55.2462 33.1564 55.5085 33.0238 55.7415C32.8912 55.9744 32.6819 56.1591 32.396 56.2955C32.11 56.4318 31.7378 56.5 31.2795 56.5H29.1772ZM29.8817 55.875H31.2795C31.7397 55.875 32.0664 55.786 32.2596 55.608C32.4547 55.428 32.5522 55.2102 32.5522 54.9545C32.5522 54.7576 32.502 54.5758 32.4016 54.4091C32.3013 54.2405 32.1583 54.1061 31.9727 54.0057C31.7871 53.9034 31.5674 53.8523 31.3136 53.8523H29.8817V55.875ZM29.8817 53.2386H31.1886C31.4007 53.2386 31.592 53.197 31.7624 53.1136C31.9348 53.0303 32.0711 52.9129 32.1715 52.7614C32.2738 52.6098 32.3249 52.4318 32.3249 52.2273C32.3249 51.9716 32.2359 51.7547 32.0579 51.5767C31.8799 51.3968 31.5977 51.3068 31.2113 51.3068H29.8817V53.2386ZM34.9599 55.5114L37.0621 52.1364H37.8349V56.5H37.1644V53.125L35.0735 56.5H34.2894V52.1364H34.9599V55.5114ZM38.5969 57.75V55.875H38.9606C39.0496 55.7822 39.1263 55.6818 39.1907 55.5739C39.2551 55.4659 39.311 55.3381 39.3583 55.1903C39.4076 55.0407 39.4492 54.8589 39.4833 54.6449C39.5174 54.429 39.5477 54.1686 39.5742 53.8636L39.7219 52.1364H42.4947V55.875H43.1651V57.75H42.4947V56.5H39.2674V57.75H38.5969ZM39.7219 55.875H41.8242V52.7614H40.3469L40.2333 53.8636C40.186 54.3201 40.1272 54.7187 40.0572 55.0597C39.9871 55.4006 39.8754 55.6723 39.7219 55.875ZM45.3391 56.6023C45.0626 56.6023 44.8117 56.5502 44.5863 56.446C44.3609 56.34 44.1819 56.1875 44.0494 55.9886C43.9168 55.7879 43.8505 55.5455 43.8505 55.2614C43.8505 55.0114 43.8997 54.8087 43.9982 54.6534C44.0967 54.4962 44.2283 54.3731 44.3931 54.2841C44.5579 54.1951 44.7397 54.1288 44.9386 54.0852C45.1393 54.0398 45.341 54.0038 45.5437 53.9773C45.8088 53.9432 46.0238 53.9176 46.1886 53.9006C46.3552 53.8816 46.4764 53.8504 46.5522 53.8068C46.6299 53.7633 46.6687 53.6875 46.6687 53.5795V53.5568C46.6687 53.2765 46.592 53.0587 46.4386 52.9034C46.2871 52.7481 46.0569 52.6705 45.7482 52.6705C45.4281 52.6705 45.1772 52.7405 44.9954 52.8807C44.8136 53.0208 44.6857 53.1705 44.6119 53.3295L43.9755 53.1023C44.0891 52.8371 44.2406 52.6307 44.43 52.483C44.6213 52.3333 44.8297 52.2292 45.055 52.1705C45.2823 52.1098 45.5058 52.0795 45.7255 52.0795C45.8656 52.0795 46.0266 52.0966 46.2085 52.1307C46.3922 52.1629 46.5692 52.2301 46.7397 52.3324C46.9121 52.4347 47.055 52.589 47.1687 52.7955C47.2823 53.0019 47.3391 53.2784 47.3391 53.625V56.5H46.6687V55.9091H46.6346C46.5891 56.0038 46.5134 56.1051 46.4073 56.2131C46.3013 56.321 46.1602 56.4129 45.984 56.4886C45.8079 56.5644 45.5929 56.6023 45.3391 56.6023ZM45.4414 56C45.7066 56 45.93 55.9479 46.1119 55.8438C46.2956 55.7396 46.4338 55.6051 46.5266 55.4403C46.6213 55.2756 46.6687 55.1023 46.6687 54.9205V54.3068C46.6403 54.3409 46.5778 54.3722 46.4812 54.4006C46.3865 54.4271 46.2766 54.4508 46.1516 54.4716C46.0285 54.4905 45.9083 54.5076 45.7908 54.5227C45.6753 54.536 45.5816 54.5473 45.5096 54.5568C45.3353 54.5795 45.1725 54.6165 45.021 54.6676C44.8713 54.7169 44.7501 54.7917 44.6573 54.892C44.5664 54.9905 44.521 55.125 44.521 55.2955C44.521 55.5284 44.6071 55.7045 44.7795 55.8239C44.9537 55.9413 45.1744 56 45.4414 56ZM48.1765 56.5V55.875H48.3356C48.4663 55.875 48.5752 55.8494 48.6623 55.7983C48.7494 55.7453 48.8195 55.6534 48.8725 55.5227C48.9274 55.3902 48.9691 55.2064 48.9975 54.9716C49.0278 54.7348 49.0496 54.4337 49.0629 54.0682L49.1424 52.1364H52.0515V56.5H51.381V52.7614H49.7788L49.7106 54.3182C49.6954 54.6761 49.6632 54.9915 49.614 55.2642C49.5666 55.535 49.4937 55.7623 49.3952 55.946C49.2987 56.1297 49.1699 56.268 49.0089 56.3608C48.8479 56.4536 48.6462 56.5 48.4038 56.5H48.1765ZM55.1112 56.5909C54.6907 56.5909 54.328 56.4981 54.0231 56.3125C53.7201 56.125 53.4862 55.8636 53.3214 55.5284C53.1585 55.1913 53.0771 54.7992 53.0771 54.3523C53.0771 53.9053 53.1585 53.5114 53.3214 53.1705C53.4862 52.8277 53.7153 52.5606 54.0089 52.3693C54.3043 52.1761 54.649 52.0795 55.043 52.0795C55.2702 52.0795 55.4947 52.1174 55.7163 52.1932C55.9379 52.2689 56.1396 52.392 56.3214 52.5625C56.5032 52.7311 56.6481 52.9545 56.756 53.233C56.864 53.5114 56.918 53.8542 56.918 54.2614V54.5455H53.5543V53.9659H56.2362C56.2362 53.7197 56.1869 53.5 56.0884 53.3068C55.9918 53.1136 55.8536 52.9612 55.6737 52.8494C55.4956 52.7377 55.2854 52.6818 55.043 52.6818C54.7759 52.6818 54.5449 52.7481 54.3498 52.8807C54.1566 53.0114 54.0079 53.1818 53.9038 53.392C53.7996 53.6023 53.7475 53.8277 53.7475 54.0682V54.4545C53.7475 54.7841 53.8043 55.0634 53.918 55.2926C54.0335 55.5199 54.1935 55.6932 54.3981 55.8125C54.6026 55.9299 54.8403 55.9886 55.1112 55.9886C55.2873 55.9886 55.4464 55.964 55.5884 55.9148C55.7324 55.8636 55.8564 55.7879 55.9606 55.6875C56.0647 55.5852 56.1452 55.4583 56.2021 55.3068L56.8498 55.4886C56.7816 55.7083 56.667 55.9015 56.506 56.0682C56.3451 56.233 56.1462 56.3617 55.9094 56.4545C55.6727 56.5455 55.4066 56.5909 55.1112 56.5909ZM60.8583 54.0114V54.6364H58.4492V54.0114H60.8583ZM58.6083 52.1364V56.5H57.9379V52.1364H58.6083ZM61.3697 52.1364V56.5H60.6992V52.1364H61.3697ZM63.2646 55.5114L65.3668 52.1364H66.1396V56.5H65.4691V53.125L63.3782 56.5H62.5941V52.1364H63.2646V55.5114ZM68.038 55.5114L70.1403 52.1364H70.913V56.5H70.2425V53.125L68.1516 56.5H67.3675V52.1364H68.038V55.5114ZM69.6971 50.6818H70.3221C70.3221 50.9886 70.216 51.2396 70.0039 51.4347C69.7918 51.6297 69.5039 51.7273 69.1403 51.7273C68.7823 51.7273 68.4973 51.6297 68.2852 51.4347C68.0749 51.2396 67.9698 50.9886 67.9698 50.6818H68.5948C68.5948 50.8295 68.6355 50.9593 68.717 51.071C68.8003 51.1828 68.9414 51.2386 69.1403 51.2386C69.3391 51.2386 69.4812 51.1828 69.5664 51.071C69.6535 50.9593 69.6971 50.8295 69.6971 50.6818ZM27.9964 66.5V62.1364H28.6669V64.0341H29.1101L30.6783 62.1364H31.5419L29.7805 64.2386L31.5646 66.5H30.701L29.2692 64.6591H28.6669V66.5H27.9964ZM33.8864 66.5909C33.4924 66.5909 33.1468 66.4972 32.8494 66.3097C32.554 66.1222 32.3229 65.8598 32.1562 65.5227C31.9915 65.1856 31.9091 64.7917 31.9091 64.3409C31.9091 63.8864 31.9915 63.4896 32.1562 63.1506C32.3229 62.8116 32.554 62.5483 32.8494 62.3608C33.1468 62.1733 33.4924 62.0795 33.8864 62.0795C34.2803 62.0795 34.625 62.1733 34.9205 62.3608C35.2178 62.5483 35.4489 62.8116 35.6136 63.1506C35.7803 63.4896 35.8636 63.8864 35.8636 64.3409C35.8636 64.7917 35.7803 65.1856 35.6136 65.5227C35.4489 65.8598 35.2178 66.1222 34.9205 66.3097C34.625 66.4972 34.2803 66.5909 33.8864 66.5909ZM33.8864 65.9886C34.1856 65.9886 34.4318 65.9119 34.625 65.7585C34.8182 65.6051 34.9612 65.4034 35.054 65.1534C35.1468 64.9034 35.1932 64.6326 35.1932 64.3409C35.1932 64.0492 35.1468 63.7775 35.054 63.5256C34.9612 63.2737 34.8182 63.0701 34.625 62.9148C34.4318 62.7595 34.1856 62.6818 33.8864 62.6818C33.5871 62.6818 33.3409 62.7595 33.1477 62.9148C32.9545 63.0701 32.8116 63.2737 32.7188 63.5256C32.6259 63.7775 32.5795 64.0492 32.5795 64.3409C32.5795 64.6326 32.6259 64.9034 32.7188 65.1534C32.8116 65.4034 32.9545 65.6051 33.1477 65.7585C33.3409 65.9119 33.5871 65.9886 33.8864 65.9886ZM36.8871 68.1364V62.1364H37.5348V62.8295H37.6143C37.6636 62.7538 37.7318 62.6572 37.8189 62.5398C37.9079 62.4205 38.0348 62.3144 38.1996 62.2216C38.3662 62.1269 38.5916 62.0795 38.8757 62.0795C39.2431 62.0795 39.567 62.1714 39.8473 62.3551C40.1276 62.5388 40.3464 62.7992 40.5036 63.1364C40.6607 63.4735 40.7393 63.8712 40.7393 64.3295C40.7393 64.7917 40.6607 65.1922 40.5036 65.5312C40.3464 65.8684 40.1286 66.1297 39.8501 66.3153C39.5717 66.4991 39.2507 66.5909 38.8871 66.5909C38.6068 66.5909 38.3823 66.5445 38.2138 66.4517C38.0452 66.357 37.9155 66.25 37.8246 66.1307C37.7337 66.0095 37.6636 65.9091 37.6143 65.8295H37.5575V68.1364H36.8871ZM37.5462 64.3182C37.5462 64.6477 37.5945 64.9384 37.6911 65.1903C37.7876 65.4403 37.9287 65.6364 38.1143 65.7784C38.3 65.9186 38.5272 65.9886 38.7962 65.9886C39.0765 65.9886 39.3104 65.9148 39.4979 65.767C39.6873 65.6174 39.8293 65.4167 39.924 65.1648C40.0206 64.911 40.0689 64.6288 40.0689 64.3182C40.0689 64.0114 40.0215 63.7348 39.9268 63.4886C39.834 63.2405 39.6929 63.0445 39.5036 62.9006C39.3161 62.7547 39.0803 62.6818 38.7962 62.6818C38.5234 62.6818 38.2943 62.7509 38.1087 62.8892C37.9231 63.0256 37.7829 63.2169 37.6882 63.4631C37.5935 63.7074 37.5462 63.9924 37.5462 64.3182ZM42.4325 65.5114L44.5348 62.1364H45.3075V66.5H44.6371V63.125L42.5462 66.5H41.7621V62.1364H42.4325V65.5114ZM48.3082 66.5909C47.8991 66.5909 47.5469 66.4943 47.2514 66.3011C46.956 66.108 46.7287 65.8419 46.5696 65.5028C46.4105 65.1638 46.331 64.7765 46.331 64.3409C46.331 63.8977 46.4124 63.5066 46.5753 63.1676C46.7401 62.8267 46.9692 62.5606 47.2628 62.3693C47.5582 62.1761 47.9029 62.0795 48.2969 62.0795C48.6037 62.0795 48.8802 62.1364 49.1264 62.25C49.3726 62.3636 49.5743 62.5227 49.7315 62.7273C49.8887 62.9318 49.9863 63.1705 50.0241 63.4432H49.3537C49.3026 63.2443 49.1889 63.0682 49.0128 62.9148C48.8385 62.7595 48.6037 62.6818 48.3082 62.6818C48.0469 62.6818 47.8177 62.75 47.6207 62.8864C47.4257 63.0208 47.2732 63.2112 47.1634 63.4574C47.0554 63.7017 47.0014 63.9886 47.0014 64.3182C47.0014 64.6553 47.0545 64.9489 47.1605 65.1989C47.2685 65.4489 47.42 65.643 47.6151 65.7812C47.812 65.9195 48.0431 65.9886 48.3082 65.9886C48.4825 65.9886 48.6406 65.9583 48.7827 65.8977C48.9247 65.8371 49.045 65.75 49.1435 65.6364C49.242 65.5227 49.312 65.3864 49.3537 65.2273H50.0241C49.9863 65.4848 49.8925 65.7169 49.7429 65.9233C49.5952 66.1278 49.3991 66.2907 49.1548 66.4119C48.9124 66.5312 48.6302 66.5909 48.3082 66.5909ZM50.6605 62.7614V62.1364H54.206V62.7614H52.7741V66.5H52.1037V62.7614H50.6605ZM55.6158 68.1364C55.5021 68.1364 55.4008 68.1269 55.3118 68.108C55.2228 68.0909 55.1612 68.0739 55.1271 68.0568L55.2976 67.4659C55.4605 67.5076 55.6044 67.5227 55.7294 67.5114C55.8544 67.5 55.9652 67.4441 56.0618 67.3438C56.1603 67.2453 56.2502 67.0852 56.3317 66.8636L56.4567 66.5227L54.843 62.1364H55.5703L56.7749 65.6136H56.8203L58.0249 62.1364H58.7521L56.8999 67.1364C56.8165 67.3617 56.7133 67.5483 56.5902 67.696C56.4671 67.8456 56.3241 67.9564 56.1612 68.0284C56.0002 68.1004 55.8184 68.1364 55.6158 68.1364ZM59.6371 66.5V62.1364H61.4212C61.8909 62.1364 62.264 62.2424 62.5405 62.4545C62.817 62.6667 62.9553 62.947 62.9553 63.2955C62.9553 63.5606 62.8767 63.7661 62.7195 63.9119C62.5623 64.0559 62.3606 64.1534 62.1143 64.2045C62.2753 64.2273 62.4316 64.2841 62.5831 64.375C62.7365 64.4659 62.8634 64.5909 62.9638 64.75C63.0642 64.9072 63.1143 65.1004 63.1143 65.3295C63.1143 65.553 63.0575 65.7528 62.9439 65.929C62.8303 66.1051 62.6674 66.2443 62.4553 66.3466C62.2431 66.4489 61.9893 66.5 61.6939 66.5H59.6371ZM60.2734 65.8864H61.6939C61.925 65.8864 62.1058 65.8314 62.2365 65.7216C62.3672 65.6117 62.4325 65.4621 62.4325 65.2727C62.4325 65.0473 62.3672 64.8703 62.2365 64.7415C62.1058 64.6108 61.925 64.5455 61.6939 64.5455H60.2734V65.8864ZM60.2734 63.9659H61.4212C61.6011 63.9659 61.7554 63.9413 61.8842 63.892C62.013 63.8409 62.1115 63.7689 62.1797 63.6761C62.2498 63.5814 62.2848 63.4697 62.2848 63.3409C62.2848 63.1572 62.2081 63.0133 62.0547 62.9091C61.9013 62.803 61.6901 62.75 61.4212 62.75H60.2734V63.9659ZM65.4134 66.6023C65.1368 66.6023 64.8859 66.5502 64.6605 66.446C64.4351 66.34 64.2562 66.1875 64.1236 65.9886C63.991 65.7879 63.9247 65.5455 63.9247 65.2614C63.9247 65.0114 63.974 64.8087 64.0724 64.6534C64.1709 64.4962 64.3026 64.3731 64.4673 64.2841C64.6321 64.1951 64.8139 64.1288 65.0128 64.0852C65.2135 64.0398 65.4152 64.0038 65.6179 63.9773C65.883 63.9432 66.098 63.9176 66.2628 63.9006C66.4295 63.8816 66.5507 63.8504 66.6264 63.8068C66.7041 63.7633 66.7429 63.6875 66.7429 63.5795V63.5568C66.7429 63.2765 66.6662 63.0587 66.5128 62.9034C66.3613 62.7481 66.1312 62.6705 65.8224 62.6705C65.5024 62.6705 65.2514 62.7405 65.0696 62.8807C64.8878 63.0208 64.7599 63.1705 64.6861 63.3295L64.0497 63.1023C64.1634 62.8371 64.3149 62.6307 64.5043 62.483C64.6955 62.3333 64.9039 62.2292 65.1293 62.1705C65.3565 62.1098 65.58 62.0795 65.7997 62.0795C65.9399 62.0795 66.1009 62.0966 66.2827 62.1307C66.4664 62.1629 66.6435 62.2301 66.8139 62.3324C66.9863 62.4347 67.1293 62.589 67.2429 62.7955C67.3565 63.0019 67.4134 63.2784 67.4134 63.625V66.5H66.7429V65.9091H66.7088C66.6634 66.0038 66.5876 66.1051 66.4815 66.2131C66.3755 66.321 66.2344 66.4129 66.0582 66.4886C65.8821 66.5644 65.6671 66.6023 65.4134 66.6023ZM65.5156 66C65.7808 66 66.0043 65.9479 66.1861 65.8438C66.3698 65.7396 66.508 65.6051 66.6009 65.4403C66.6955 65.2756 66.7429 65.1023 66.7429 64.9205V64.3068C66.7145 64.3409 66.652 64.3722 66.5554 64.4006C66.4607 64.4271 66.3509 64.4508 66.2259 64.4716C66.1027 64.4905 65.9825 64.5076 65.8651 64.5227C65.7495 64.536 65.6558 64.5473 65.5838 64.5568C65.4096 64.5795 65.2467 64.6165 65.0952 64.6676C64.9455 64.7169 64.8243 64.7917 64.7315 64.892C64.6406 64.9905 64.5952 65.125 64.5952 65.2955C64.5952 65.5284 64.6813 65.7045 64.8537 65.8239C65.0279 65.9413 65.2486 66 65.5156 66ZM72.0007 62.1364V66.5H71.3303V62.1364H72.0007ZM71.7393 64.2159V64.8409C71.5878 64.8977 71.4373 64.9479 71.2876 64.9915C71.138 65.0331 70.9808 65.0663 70.8161 65.0909C70.6513 65.1136 70.4704 65.125 70.2734 65.125C69.7791 65.125 69.3823 64.9915 69.0831 64.7244C68.7857 64.4574 68.6371 64.0568 68.6371 63.5227V62.125H69.3075V63.5227C69.3075 63.7462 69.3501 63.9299 69.4354 64.0739C69.5206 64.2178 69.6361 64.3248 69.782 64.3949C69.9278 64.465 70.0916 64.5 70.2734 64.5C70.5575 64.5 70.8142 64.4744 71.0433 64.4233C71.2744 64.3703 71.5064 64.3011 71.7393 64.2159Z" fill="#0C0A00"/>
</svg>
