<?xml version="1.0" encoding="utf-8"?><svg xmlns="http://www.w3.org/2000/svg" xmlns:xlink="http://www.w3.org/1999/xlink"><symbol fill="none" viewBox="0 0 18 18" id="icon-alert-exclamation" xmlns="http://www.w3.org/2000/svg"><path d="M9 5.8V9m0 3.2h.008M17 9A8 8 0 1 1 1 9a8 8 0 0 1 16 0Z" stroke="#A80E0E" stroke-width="1.333" stroke-linecap="round" stroke-linejoin="round"/></symbol><symbol viewBox="0 0 19 21" id="icon-basket" xmlns="http://www.w3.org/2000/svg"><path d="M14 0a1.5 1.5 0 0 1 1.5 1.5V3h3.3c.11 0 .2.09.2.2v1.1a.2.2 0 0 1-.2.2H18V18a3 3 0 0 1-3 3H4a3 3 0 0 1-3-3V4.5H.2a.2.2 0 0 1-.2-.2V3.2c0-.11.09-.2.2-.2h3.3V1.5A1.5 1.5 0 0 1 5 0h9Zm2.5 4.5h-14V18a1.5 1.5 0 0 0 1.412 1.497L4 19.5h11a1.5 1.5 0 0 0 1.497-1.412L16.5 18V4.5Zm-9.2 3c.11 0 .2.09.2.2v8.6a.2.2 0 0 1-.2.2H6.2a.2.2 0 0 1-.2-.2V7.7c0-.11.09-.2.2-.2h1.1Zm6 0c.11 0 .2.09.2.2v8.6a.2.2 0 0 1-.2.2h-1.1a.2.2 0 0 1-.2-.2V7.7c0-.11.09-.2.2-.2h1.1Zm.7-6H5V3h9V1.5Z"/></symbol><symbol viewBox="0 0 22 20" id="icon-chat" xmlns="http://www.w3.org/2000/svg"><path d="M11 1C5.48 1 1 5 1 10a8.23 8.23 0 0 0 1.18 4.23L1 19l4.32-1.6A10.68 10.68 0 0 0 11 19c5.52 0 10-4 10-9s-4.48-9-10-9Z"/></symbol><symbol fill="none" viewBox="0 0 19 16" id="icon-close" xmlns="http://www.w3.org/2000/svg"><path d="M2.367.058 9.368 6.91 16.37.06a.21.21 0 0 1 .147-.06h1.587c.114 0 .206.09.206.2a.197.197 0 0 1-.06.14l-7.797 7.63 7.856 7.69c.08.078.08.204-.001.282a.21.21 0 0 1-.145.058h-1.587a.21.21 0 0 1-.146-.06l-7.06-6.908-7.062 6.909a.21.21 0 0 1-.146.059H.575a.203.203 0 0 1-.207-.2c0-.053.022-.103.06-.14l7.856-7.69L.487.34A.196.196 0 0 1 .488.058a.21.21 0 0 1 .145-.058H2.22a.21.21 0 0 1 .147.06Z" fill="#0C0A00"/></symbol><symbol viewBox="0 0 19 18" id="icon-edit" xmlns="http://www.w3.org/2000/svg"><path d="M17.078.922a3.15 3.15 0 0 1 0 4.456L4.607 17.847a.525.525 0 0 1-.37.153H1.05C.47 18 0 17.53 0 16.95v-3.187c0-.14.055-.273.153-.372L12.623.922a3.15 3.15 0 0 1 4.455 0Zm1.21 15.578c.141 0 .212.067.212.2v1.1c0 .133-.07.2-.212.2H9.712c-.141 0-.212-.067-.212-.2v-1.1c0-.133.07-.2.212-.2h8.576ZM11.586 4.186l-9.95 9.95a.21.21 0 0 0-.06.149v1.93c0 .117.093.21.21.21h1.93a.21.21 0 0 0 .148-.061l9.95-9.95-2.228-2.228ZM18.278 13c.148 0 .222.067.222.2v1.1c0 .133-.074.2-.222.2h-4.556c-.148 0-.222-.067-.222-.2v-1.1c0-.133.074-.2.222-.2h4.556ZM13.804 1.973l-.068.063-1.05 1.05 2.228 2.228 1.05-1.05c.59-.59.618-1.537.063-2.16l-.063-.067v-.001a1.575 1.575 0 0 0-2.16-.063Z"/></symbol><symbol fill="none" viewBox="0 0 24 24" id="icon-eye-closed" xmlns="http://www.w3.org/2000/svg"><path d="M22 7.648V9.25a.2.2 0 0 1-.067.15c-.984.874-1.76 1.49-2.326 1.848l1.928 2.24a.2.2 0 0 1-.022.282l-.003.004-.84.687a.2.2 0 0 1-.278-.025l-2.106-2.448a14.138 14.138 0 0 1-3.408 1.162l1.03 2.759a.2.2 0 0 1-.118.257l-.003.001-1.032.367a.2.2 0 0 1-.255-.119l-1.135-3.04a14.527 14.527 0 0 1-3.067-.037l-1.149 3.077a.2.2 0 0 1-.254.119l-1.032-.367a.2.2 0 0 1-.12-.258l1.055-2.83a14.128 14.128 0 0 1-3.084-1.091l-2.106 2.448a.2.2 0 0 1-.278.024l-.84-.687a.2.2 0 0 1-.028-.28l.003-.005 1.928-2.24c-.567-.358-1.342-.974-2.326-1.848A.2.2 0 0 1 2 9.25V7.662a.2.2 0 0 1 .355-.127l.056.069.098.114c2.292 2.606 5.694 4.257 9.491 4.257 3.805 0 7.212-1.657 9.505-4.273l.15-.176a.194.194 0 0 1 .345.122Z" fill="#616161"/></symbol><symbol fill="none" viewBox="0 0 22 18" id="icon-eye-open" xmlns="http://www.w3.org/2000/svg"><path d="M10.79.73c2.01 0 3.85.738 5.27 1.962l.178.157.198.177.212.194.343.322.374.36.405.397.287.286.616.62.498.51.713.738.767.804.404.427c.678.718.703 1.807.074 2.552l-.073.08-.79.835-.563.587-.701.724-.49.499-.605.607-.281.278-.397.386-.366.349-.335.31-.206.187-.193.17-.09.078a8.04 8.04 0 0 1-5.248 1.944 8.042 8.042 0 0 1-5.273-1.966l-.178-.156-.198-.177-.322-.297-.353-.335-.384-.372-.415-.41-.601-.603-.657-.67-.711-.737-.967-1.015c-.068-.07-.136-.143-.204-.215a1.907 1.907 0 0 1-.073-2.553l.073-.081.978-1.029.45-.468.635-.656.399-.406.378-.381.455-.454.458-.449.283-.272.391-.367.239-.218.22-.197.103-.09A8.042 8.042 0 0 1 10.791.73Zm0 1.459c-1.586 0-3.086.57-4.277 1.6l-.263.231-.197.18-.323.3-.479.46-.396.39-.429.427-.46.465-.49.502-.522.54-.745.778-.577.609a.477.477 0 0 0 0 .658l.76.8.905.943.502.515.62.629.428.427.268.264.376.365.233.222.323.3.29.264.176.154a6.516 6.516 0 0 0 4.278 1.599 6.515 6.515 0 0 0 4.256-1.58l.172-.15.19-.17.206-.188.22-.205.234-.223.248-.239.398-.39.58-.58.473-.48.504-.517.72-.748.38-.4.58-.611a.477.477 0 0 0 0-.658l-.944-.992-.89-.924-.65-.664-.45-.454-.419-.415-.387-.378-.24-.231-.227-.214-.313-.29-.19-.17-.177-.155a6.516 6.516 0 0 0-4.274-1.596Zm.002 2.312c2.418 0 4.378 2.014 4.378 4.5 0 2.485-1.96 4.5-4.378 4.5-2.419 0-4.379-2.015-4.379-4.5 0-2.486 1.96-4.5 4.379-4.5ZM10.84 6v1.8l-.003.09A1.2 1.2 0 0 1 9.72 8.997L9.64 9h-1.8l.003.13A3 3 0 1 0 10.84 6Z" fill="#616161"/></symbol><symbol viewBox="0 0 18 20" id="icon-filter" xmlns="http://www.w3.org/2000/svg"><path d="M16 0c1.105 0 2 .885 2 1.976v1.513a.982.982 0 0 1-.294.7L12 9.39v7.284a1.97 1.97 0 0 1-.971 1.694l-3.514 1.49a1.007 1.007 0 0 1-1.372-.339.979.979 0 0 1-.143-.508V9.391L.36 4.248a.983.983 0 0 1-.36-.76V1.977C0 .885.895 0 2 0h14Zm0 1.482H2a.498.498 0 0 0-.497.436l-.003.058v1.193a.2.2 0 0 0 .066.148l5.868 5.32a.2.2 0 0 1 .066.148v9.065a.2.2 0 0 0 .27.187l2.487-.939a.493.493 0 0 0 .239-.359l.004-.064v-7.89a.2.2 0 0 1 .066-.148l5.868-5.32a.2.2 0 0 0 .066-.149V1.976a.496.496 0 0 0-.442-.49L16 1.481Zm2 14.53v1.081a.2.2 0 0 1-.2.2h-3.6a.2.2 0 0 1-.2-.2v-1.081c0-.111.09-.2.2-.2h3.6c.11 0 .2.089.2.2Zm0-2.964v1.082a.2.2 0 0 1-.2.2h-3.6a.2.2 0 0 1-.2-.2v-1.082c0-.11.09-.2.2-.2h3.6c.11 0 .2.09.2.2Zm0-2.964v1.082a.2.2 0 0 1-.2.2h-3.6a.2.2 0 0 1-.2-.2v-1.082c0-.11.09-.2.2-.2h3.6c.11 0 .2.09.2.2Z"/></symbol><symbol fill="none" viewBox="0 0 187 75" id="icon-logo" xmlns="http://www.w3.org/2000/svg"><path d="M48.13 56c1.888 0 4.364-28.667 5.937-38h19.788L74 56H48.13Z" fill="#FAF353"/><path d="M64 18v37M55 36h18" stroke="#0C0A00" stroke-width=".5"/><path d="M21.281 44.125H10.188l-.063-4.625h9.063c1.791 0 3.28-.177 4.468-.531 1.209-.354 2.115-.886 2.719-1.594.604-.708.906-1.583.906-2.625 0-.813-.177-1.52-.531-2.125-.333-.625-.844-1.135-1.531-1.531-.688-.417-1.542-.719-2.563-.907-1-.208-2.177-.312-3.531-.312h-7.406V59H5.938V25.187h13.187c2.146 0 4.073.188 5.781.563 1.73.375 3.198.948 4.407 1.719 1.229.75 2.166 1.708 2.812 2.875.646 1.166.969 2.541.969 4.125 0 1.02-.209 1.99-.625 2.906-.417.917-1.032 1.73-1.844 2.438-.813.708-1.813 1.291-3 1.75-1.188.437-2.552.718-4.094.843l-2.25 1.719Zm0 14.875H8.094l2.875-4.688H21.28c1.604 0 2.938-.197 4-.593 1.063-.417 1.854-1 2.375-1.75.542-.771.813-1.688.813-2.75 0-1.063-.271-1.969-.813-2.719-.52-.77-1.312-1.354-2.375-1.75-1.062-.417-2.396-.625-4-.625H12.5l.063-4.625H23.53l2.094 1.75c1.854.146 3.427.604 4.719 1.375 1.291.77 2.27 1.75 2.937 2.938a7.552 7.552 0 0 1 1 3.812c0 1.583-.302 2.98-.906 4.188a7.973 7.973 0 0 1-2.563 3.03c-1.125.792-2.49 1.397-4.093 1.813-1.604.396-3.417.594-5.438.594Zm57.407-4.906V59H44.25v-4.906h34.438Zm-33.47 0v16.093H39.25l-.031-16.093h6Zm38.72 0-.063 16.062h-5.969V54.094h6.031ZM72.78 13.5v4.938H52.844V13.5H72.78Zm5.188 0V59h-6V13.5h6Zm-27.188 0h6.032l-.938 18.313c-.125 2.75-.385 5.291-.781 7.625-.396 2.312-.886 4.427-1.469 6.343-.583 1.917-1.25 3.636-2 5.157-.75 1.5-1.552 2.802-2.406 3.906-.854 1.083-1.75 1.979-2.688 2.687-.916.688-1.843 1.177-2.781 1.469H41v-4.906h1.938c.541-.584 1.156-1.427 1.843-2.532.709-1.104 1.407-2.53 2.094-4.28.708-1.772 1.323-3.928 1.844-6.47.541-2.541.906-5.541 1.093-9l.97-18.312Zm37.844 28.969v-.719c0-2.438.354-4.698 1.063-6.781.708-2.104 1.729-3.927 3.062-5.469a13.663 13.663 0 0 1 4.844-3.625c1.896-.875 4.021-1.313 6.375-1.313 2.375 0 4.51.438 6.406 1.313a13.59 13.59 0 0 1 4.875 3.625c1.354 1.542 2.385 3.365 3.094 5.469.708 2.083 1.062 4.343 1.062 6.781v.719c0 2.437-.354 4.698-1.062 6.781-.709 2.083-1.74 3.906-3.094 5.469a14.171 14.171 0 0 1-4.844 3.625c-1.875.854-4 1.281-6.375 1.281s-4.51-.427-6.406-1.281a14.497 14.497 0 0 1-4.875-3.625c-1.333-1.563-2.354-3.386-3.063-5.469-.708-2.083-1.062-4.344-1.062-6.781Zm5.781-.719v.719c0 1.687.198 3.281.594 4.781.396 1.48.99 2.792 1.781 3.938a9.017 9.017 0 0 0 3.031 2.718c1.209.646 2.615.969 4.219.969 1.584 0 2.969-.323 4.157-.969a8.731 8.731 0 0 0 3-2.718c.791-1.146 1.385-2.459 1.781-3.938.416-1.5.625-3.094.625-4.781v-.719c0-1.667-.209-3.24-.625-4.719-.396-1.5-1-2.823-1.813-3.968a8.602 8.602 0 0 0-3-2.75c-1.187-.667-2.583-1-4.187-1-1.584 0-2.979.333-4.188 1-1.187.666-2.187 1.583-3 2.75-.791 1.145-1.385 2.468-1.781 3.968-.396 1.48-.594 3.052-.594 4.719Zm51.688 9.563 11.5-26.126h5.562L148.094 59h-4l-15-33.813h5.562l11.438 26.125Zm-13.125-26.126V59h-5.781V25.187h5.781ZM159.031 59V25.187h5.813V59h-5.813Zm21.407-33.813V59h-5.813V25.187h5.813Zm-6.25-8.968c0-.938.281-1.73.843-2.375.584-.646 1.438-.969 2.563-.969 1.104 0 1.948.323 2.531.969.604.646.906 1.437.906 2.375 0 .896-.302 1.666-.906 2.312-.583.625-1.427.938-2.531.938-1.125 0-1.979-.313-2.563-.938-.562-.646-.843-1.416-.843-2.312Z" fill="#0C0A00"/></symbol><symbol viewBox="0 0 25 25" id="icon-logout" xmlns="http://www.w3.org/2000/svg"><path d="m12.5 15.816 3-3m0 0-3-3m3 3h-11m5-4.751v-.048c0-1.12 0-1.681.218-2.109a2 2 0 0 1 .874-.874c.428-.218.988-.218 2.108-.218h4.6c1.12 0 1.68 0 2.107.218.377.192.683.498.875.874.218.428.218.987.218 2.105v9.607c0 1.118 0 1.677-.218 2.104a2.002 2.002 0 0 1-.875.875c-.427.217-.986.217-2.104.217h-4.606c-1.118 0-1.678 0-2.105-.217a2 2 0 0 1-.874-.875c-.218-.428-.218-.988-.218-2.108v-.05"/></symbol><symbol viewBox="0 0 21 17" id="icon-members" xmlns="http://www.w3.org/2000/svg"><path d="M9.256 0c2.348 0 4.251 1.867 4.251 4.17v1.954c0 1.16-.478 2.271-1.325 3.082l-.877.84a.076.076 0 0 0-.023.055v.09l5.603 2.81a2.22 2.22 0 0 1 1.302 1.909l.002.102v.163c0 1.008-.833 1.825-1.861 1.825H1.862C.88 17 .068 16.254.004 15.294L0 15.24 0 15.149v-.137c0-.813.454-1.561 1.181-1.95l.044-.022.098-.048 5.585-2.8v-.091a.076.076 0 0 0-.008-.035l-.006-.008-.015-.017-.872-.835a4.282 4.282 0 0 1-1.313-2.792l-.009-.153-.003-.151V4.169C4.682 1.919 6.505.074 8.82 0L8.945 0h.31ZM8.945 1.38l-.104.001c-1.535.05-2.753 1.283-2.753 2.79v1.94l.002.126c.03.75.351 1.46.899 1.984l.902.865.077.083c.223.261.345.591.345.933v.137l-.006.097a1.361 1.361 0 0 1-.792 1.1L1.92 14.241l-.065.032a.84.84 0 0 0-.448.74v.192a.452.452 0 0 0 .455.417h14.466c.252 0 .456-.2.456-.447v-.162a.84.84 0 0 0-.495-.763l-5.614-2.815a1.357 1.357 0 0 1-.798-1.23V10.1c0-.392.16-.767.447-1.041l.877-.84a2.902 2.902 0 0 0 .901-2.096V4.169c0-1.54-1.274-2.79-2.845-2.79h-.311Zm8.465 3.238.002.112v1.474c0 .9-.36 1.764-1.001 2.407l-.099.095-.593.55 4.062 2.035a2.04 2.04 0 0 1 1.21 1.657l.007.098.002.1a1.57 1.57 0 0 1-1.422 1.55c-.122-.627-.261-1.083-.416-1.37h.249c.1 0 .183-.08.183-.179a.656.656 0 0 0-.337-.572l-.058-.029-1.382-.616a3.692 3.692 0 0 0-.336-.176l-2.86-1.548a1.184 1.184 0 0 1-.372-.861c0-.364.14-.714.39-.98l.071-.07.637-.59c.392-.364.626-.86.656-1.387l.003-.114V4.728c0-.797-.49-1.516-1.24-1.822-.08-.336-.287-.845-.618-1.525 1.782.08 3.202 1.488 3.262 3.236Z"/></symbol><symbol fill="none" viewBox="0 0 22 22" id="icon-plus-add" xmlns="http://www.w3.org/2000/svg"><path d="M11 0c6.075 0 11 4.925 11 11s-4.925 11-11 11S0 17.075 0 11 4.925 0 11 0Zm0 1.5a9.5 9.5 0 1 0 0 19 9.5 9.5 0 0 0 0-19Zm.75 4.95v3.8h3.8c.11 0 .2.09.2.2v1.1a.2.2 0 0 1-.2.2h-3.8v3.8a.2.2 0 0 1-.2.2h-1.1a.2.2 0 0 1-.2-.2v-3.8h-3.8a.2.2 0 0 1-.2-.2v-1.1c0-.11.09-.2.2-.2h3.8v-3.8c0-.11.09-.2.2-.2h1.1c.11 0 .2.09.2.2Z" fill="#000"/></symbol><symbol viewBox="0 0 20 21" id="icon-profile" xmlns="http://www.w3.org/2000/svg"><path d="M9.75.5a4.99 4.99 0 0 1 4.99 4.99v2.02a4.988 4.988 0 0 1-2.495 4.322V12l5.488 2.933a3.344 3.344 0 0 1 1.747 3.317 2.529 2.529 0 0 1-2.514 2.25H2.534A2.529 2.529 0 0 1 .02 18.25a3.343 3.343 0 0 1 1.748-3.317L7.255 12v-.168A4.988 4.988 0 0 1 4.76 7.51V5.49A4.99 4.99 0 0 1 9.75.5Zm0 1.5a3.49 3.49 0 0 0-3.487 3.37l-.003.12v2.02c0 1.216.626 2.322 1.633 2.956l.113.068.648.375a.2.2 0 0 1 .1.173l.002 1.696a.2.2 0 0 1-.105.177l-6.176 3.3a1.843 1.843 0 0 0-.964 1.83c.055.495.455.875.945.912l.078.003h14.432c.524 0 .965-.394 1.023-.915a1.843 1.843 0 0 0-.875-1.778l-.088-.051-6.177-3.3a.2.2 0 0 1-.105-.178l.002-1.696a.2.2 0 0 1 .1-.173l.648-.375a3.487 3.487 0 0 0 1.743-2.889l.002-.134V5.489A3.49 3.49 0 0 0 9.75 2Zm9.55 8c.11 0 .2.09.2.2v1.1a.2.2 0 0 1-.2.2h-1.6a.2.2 0 0 1-.2-.2v-1.1c0-.11.09-.2.2-.2h1.6Zm0-3c.11 0 .2.09.2.2v1.1a.2.2 0 0 1-.2.2h-3.1a.2.2 0 0 1-.2-.2V7.2c0-.11.09-.2.2-.2h3.1Zm0-3c.11 0 .2.09.2.2v1.1a.2.2 0 0 1-.2.2h-3.1a.2.2 0 0 1-.2-.2V4.2c0-.11.09-.2.2-.2h3.1Z"/></symbol><symbol fill="none" viewBox="0 0 16 16" id="icon-remove-error" xmlns="http://www.w3.org/2000/svg"><rect x=".5" y=".5" width="15" height="15" rx="7.5" stroke="#A80E0E"/><path d="m8.648 8.004 4.22-4.205a.458.458 0 0 0 0-.644.45.45 0 0 0-.64-.012L8.01 7.348 3.844 3.143a.45.45 0 0 0-.658 0 .452.452 0 0 0 0 .607l4.166 4.2-4.22 4.2a.458.458 0 0 0 0 .643c.084.087.2.135.32.134.122.01.244-.03.337-.11l4.22-4.205 4.22 4.254c.084.087.2.135.32.134a.458.458 0 0 0 .32-.778L8.647 8.004Z" fill="#A80E0E"/></symbol><symbol fill="none" viewBox="0 0 22 22" id="icon-success" xmlns="http://www.w3.org/2000/svg"><path d="M11 0c6.075 0 11 4.925 11 11s-4.925 11-11 11S0 17.075 0 11 4.925 0 11 0Zm0 1.5a9.5 9.5 0 1 0 0 19 9.5 9.5 0 0 0 0-19Zm5.97 6.341-6.298 6.298a.75.75 0 0 1-1.061 0l-.039-.04a.75.75 0 0 1-.153-.119l-3.638-3.639A.2.2 0 0 1 5.922 10h1.555a.2.2 0 0 1 .142.058l2.506 2.506 5.006-5.006a.2.2 0 0 1 .142-.058h1.555a.2.2 0 0 1 .142.341Z" fill="#36DF32"/></symbol></svg>