<svg width="100" height="100" viewBox="0 0 100 100" fill="none" xmlns="http://www.w3.org/2000/svg">
<rect width="100" height="100" rx="50" fill="#006C65"/>
<path d="M21.7421 84.2388C21.6371 83.6296 20.9941 83.4539 20.6267 82.984C20.0639 82.2641 19.5366 81.5282 19.1004 80.7239C18.5215 79.6566 17.6993 78.1021 17.9117 76.8421C18.1344 75.5208 19.0957 74.3707 20.1718 73.5987C20.7875 73.157 21.2555 72.6646 21.9948 72.4817C21.6225 72.0545 21.3503 71.5456 20.9496 71.0304C20.3384 70.2445 19.7825 69.5016 19.5554 68.5282C19.0809 66.4949 19.4495 64.2102 21.0519 62.8841C20.4826 62.55 19.9597 62.084 19.482 61.447C18.4205 60.0316 17.9126 57.8753 18.8509 56.3398C19.3043 55.5979 19.8753 54.5295 20.6063 53.7145C19.826 52.8774 19.1004 51.2908 19.1004 50.5281C19.1004 48.8899 21.0484 48.0041 22.5937 47.2452C22.0705 46.7652 21.62 46.2459 21.4045 45.5089C21.1337 44.5822 20.979 43.2726 21.6394 42.5003C22.3254 41.698 22.8637 41.153 23.8848 40.908C24.7924 40.6901 26.0793 40.1127 27.0108 40.3136C27.8243 40.4891 26.5049 39.206 26.299 39.0001C25.9505 38.6516 25.3716 38.2693 25.1102 37.8627C24.792 37.3678 24.9001 36.6927 24.9121 36.1309C24.9404 34.7994 25.7543 34.5736 26.864 34.2084C27.9363 33.8555 28.9515 33.7828 30.078 33.7828C30.3877 33.7828 29.5903 33.389 29.4103 33.1371C29.2394 32.8978 29.0573 32.5419 28.8526 32.3372C28.1664 31.651 27.4647 31.1631 27.1282 30.1872C26.8019 29.241 27.9041 28.7759 28.6104 28.4261C29.9126 27.7811 31.3906 27.5183 32.8298 27.729C33.5876 27.8399 34.6924 27.9506 35.3009 28.5477C34.8549 27.7804 34.3079 27.1862 33.6737 26.5622C33.0513 25.9499 32.3813 25.4067 32.6023 24.4342C32.7421 23.8191 33.819 23.2551 34.3634 23.1574L34.3852 23.1535C35.6066 22.9342 36.5237 22.7696 37.5261 23.6344C38.0227 24.0628 38.4221 24.6021 39.0157 24.9038C39.2371 25.0164 39.6715 25.5472 39.6468 25.3001C39.5729 24.5618 38.7129 23.6638 38.4433 22.9226C38.2133 22.2898 38.7181 21.7231 39.2432 21.4403C40.2697 20.8876 41.6145 22.0758 42.4425 22.4603C43.2862 22.852 43.9542 23.3861 44.666 23.9792C45.1683 24.3979 45.3561 24.9258 45.0916 23.9205C44.7379 22.5767 43.4404 18.5844 45.9207 18.3363C46.8719 18.2412 47.5947 18.5638 48.2909 19.1509C49.02 19.7656 49.1591 20.5964 49.2757 21.4824C49.4242 20.684 49.7484 19.8854 50.1548 19.2903C51.1858 17.7806 52.5086 17.2617 53.9412 16.245C54.0856 16.1425 54.4951 15.6053 54.6603 15.8047C55.0674 16.296 55.4774 16.9592 55.6289 17.5805C56.1793 19.837 54.2128 20.9078 53.2441 22.6217C53.1672 22.7577 53.0353 22.9665 52.8936 23.1827C53.4126 22.5943 54.037 22.2002 54.8217 21.8732C56.5742 21.1431 59.4853 19.989 60.2518 22.4529C60.4732 23.1646 59.379 23.9734 58.9897 24.4709C58.3828 25.2464 57.1668 25.3474 56.2967 25.7257C54.8475 26.3558 59.3011 24.7444 60.7948 24.2287C62.7332 23.5595 64.8533 23.3378 66.8707 23.0106C67.232 22.952 68.0071 22.758 68.1622 23.2454C68.4231 24.0654 68.3676 25.0602 68.3676 25.9165C68.3676 26.6845 66.8896 27.1091 66.2837 27.2813C64.9483 27.661 63.4152 27.8499 62.1597 28.4407C60.8069 29.0773 65.0894 27.7069 66.5845 27.7069C68.0669 27.7069 69.6599 27.6441 71.0533 28.2353C71.5684 28.4538 72.3205 29.0196 72.653 29.4534C73.2874 30.2808 73.3868 30.9505 73.3868 31.963C73.3868 32.1984 73.3465 32.4099 73.2733 32.5996C73.5395 32.645 73.8058 32.7043 74.0766 32.7848C75.1246 33.0964 75.8992 33.76 76.2193 34.7954C76.4917 35.6767 77.02 36.9261 76.7916 37.8774C76.7295 38.1362 76.355 38.3736 75.8368 38.5623C76.0411 38.6798 76.2333 38.8129 76.4101 38.9634C77.6995 40.0618 80.6357 41.8929 79.4994 43.9679C78.4924 45.8067 76.6463 46.4893 74.7065 46.5842C75.3529 46.9017 75.9665 47.2261 76.1019 47.3287C77.0118 48.0181 78 48.5579 78.7729 49.398C79.1672 49.8266 79.4892 50.3608 79.8002 50.8509C80.1684 51.4312 81.3406 53.0519 80.7688 52.6708C80.6108 52.5654 80.6397 53.2058 80.6221 53.3018C80.5227 53.843 80.2806 54.3354 80.0204 54.8135C79.5022 55.7653 78.5535 56.6776 77.6135 57.235C77.098 57.5407 76.4972 57.7188 75.8872 57.823C76.3182 58.0824 76.7527 58.338 77.1879 58.5852C78.432 59.2917 79.8656 60.2121 80.2552 61.6818C80.3824 62.162 80.4865 62.6675 80.512 63.1641C80.5499 63.9028 80.1499 64.1008 79.5801 64.4996C78.6291 65.1653 77.655 65.3535 76.5275 65.5489C76.3562 65.5786 75.843 65.763 75.4115 65.8578C76.3702 66.1636 77.9254 66.7456 78.6702 66.9652C79.9482 67.3418 81.2749 68.7354 81.8108 69.9444C83.0188 72.6692 80.4925 74.9483 78.0685 75.5359C77.5732 75.656 75.2613 77.2731 75.8524 77.3998C76.7462 77.5913 77.5918 77.7092 78.2886 78.3684C78.8885 78.9358 80.7448 81.3087 79.5874 82.1768C78.9101 82.6848 77.4812 82.6047 76.6889 82.7271C75.1836 82.9598 73.483 82.8922 71.9633 82.9179C70.664 82.94 69.3511 83.1497 68.0521 83.2481C66.2509 83.3846 64.4274 83.3142 62.622 83.3142C59.7662 83.3142 56.8814 83.1934 54.0292 83.3435C50.3565 83.5368 46.6897 83.0669 43.0222 83.1748C41.4753 83.2203 39.844 83.283 38.3113 83.05C37.5102 82.9283 36.779 82.5508 35.9631 82.5217C35.3525 82.4999 34.7227 82.4998 34.1139 82.551C32.5769 82.6803 31.0716 83.1366 29.5277 83.1748C27.9253 83.2143 26.2354 82.987 24.6626 83.3802C23.7098 83.6184 22.7189 84.2388 21.7421 84.2388Z" fill="#FAF353" stroke="#0C0A00" stroke-linecap="round"/>
<path d="M34.5169 55.6636C33.9674 55.9222 33.2757 56.3685 32.9401 56.8887C32.3823 57.7533 32.4773 59.3862 33.0632 60.2122C33.4117 60.7034 34.0207 60.763 34.5755 60.8101C34.9296 60.8402 36.0515 60.9755 36.2696 60.5756C36.3305 60.4639 35.565 60.097 35.4724 60.054C34.9985 59.834 34.3549 59.8094 33.9425 60.1653C33.3389 60.6862 32.9504 61.5614 32.5357 62.2286C32.1215 62.8949 31.848 63.5524 31.7737 64.333C31.7304 64.7877 31.585 65.3451 31.6916 65.7984C31.8135 66.3163 32.3109 66.7703 32.5943 67.211C33.3103 68.3248 35.1089 68.5596 36.293 68.0024C37.1713 67.589 37.6723 66.4652 37.8932 65.5815" stroke="#0C0A00" stroke-linecap="round"/>
<path d="M53.9306 54.1863C53.9306 55.8402 53.9017 57.4122 55.1498 58.6822C55.8525 59.3972 56.989 59.4741 57.94 59.4618C59.1431 59.4463 59.6407 58.6026 60.1791 57.6212C60.7128 56.6484 61.0818 55.481 61.0818 54.3622C61.0818 54.2007 60.939 52.8152 60.4194 53.055C59.8586 53.3139 60.1511 54.3802 60.4429 54.667C61.1847 55.396 62.3693 55.8851 63.4089 55.9683C64.3491 56.0435 64.9692 55.1676 65.3608 54.4091C66.0672 53.0411 65.4287 51.2735 64.974 49.919C64.7904 49.3724 64.5221 48.6759 64.0713 48.2895C63.789 48.0476 63.6599 48.092 63.9833 48.4478C64.8758 49.4294 66.1917 49.4636 66.8849 48.2543C67.7412 46.7602 66.4583 45.5708 65.4312 44.6904" stroke="#0C0A00" stroke-linecap="round"/>
<path d="M54.7751 65.8982C54.5451 67.0251 53.8824 68.4846 55.0623 69.2569C56.7091 70.3348 58.7621 68.7544 59.1772 67.094C59.3701 66.3225 59.0952 67.2658 59.0483 67.516C58.9147 68.2283 58.7252 69.2595 59.1245 69.931C59.6996 70.8983 61.3206 70.87 62.2253 70.652C63.9143 70.245 64.1247 69.1832 64.1596 67.6626C64.1834 66.6296 64.1655 65.595 64.1655 64.5618C64.1655 64.0144 64.1676 65.7088 64.4468 66.1796C65.052 67.1997 66.0963 67.79 67.2487 67.9029C68.2901 68.0049 69.6134 68.1536 70.3202 67.1995C70.9012 66.4152 71.2577 64.9956 71.0353 64.0342C70.7876 62.9627 69.9458 61.8797 68.9134 61.4668" stroke="#0C0A00" stroke-linecap="round"/>
<path d="M38.9033 35.2715C38.587 35.2064 38.3824 35.1452 38.1502 34.9131C37.7858 34.9131 37.91 35.7118 37.91 35.9617C37.91 36.6161 37.8495 37.3012 37.9176 37.9521C37.9321 38.0906 37.9982 38.2165 38.0282 38.3524C38.0689 38.5367 38.1015 38.7211 38.1579 38.9015C38.2699 39.2602 38.3026 39.6437 38.4076 40.0054C38.4538 40.1644 38.5522 40.2908 38.6288 40.4362C38.7127 40.5957 38.7752 40.7655 38.8709 40.9186C38.9949 41.117 39.1339 41.3465 39.2141 41.5668C39.2572 41.6854 39.3806 41.7481 39.4352 41.8623C39.5137 42.0265 39.6203 42.1826 39.7593 42.3027C39.9966 42.5076 40.189 42.6999 40.3465 42.97C40.6208 43.4402 41.0966 43.6413 41.5896 43.7821C42.4077 44.0159 43.1778 43.865 43.9822 43.6639C44.3174 43.5801 44.7887 43.2357 44.9298 42.9166C44.9681 42.8299 45.0738 42.7966 45.0823 42.7031C45.0893 42.6262 45.1276 42.5487 45.1433 42.4705C45.1854 42.2597 45.2756 42.1006 45.3549 41.9023C45.5571 41.3969 45.5627 40.8032 45.5627 40.2627C45.5627 39.624 45.6569 39.0021 45.6657 38.3639C45.6697 38.0674 45.7343 37.7783 45.7343 37.4792C45.7343 37.3256 45.7622 36.6976 45.5265 36.6976C45.2054 36.6976 44.8907 36.6915 44.5713 36.6556C44.0029 36.5918 43.4274 36.5572 42.8669 36.4383C42.245 36.3064 41.6316 36.1391 41.0176 35.9769C40.7423 35.9042 40.4735 35.8109 40.1978 35.7386C40.0322 35.6952 39.8538 35.6826 39.7021 35.5994C39.4561 35.4645 39.177 35.3279 38.9033 35.2715Z" fill="#F6F6F6"/>
<path d="M45.9658 37.8334C46.0319 37.5099 46.1062 37.1854 46.1062 36.8564C46.5665 36.8564 47.0727 36.9698 47.5075 36.8026C47.806 36.6878 48.1333 36.7894 48.4427 36.7369C48.803 36.6757 49.1308 36.6743 49.4914 36.6383C50.1682 36.5706 50.8545 36.6949 51.5261 36.5755C51.7098 36.5429 51.8491 36.4507 52.022 36.3963C52.2045 36.3388 52.1273 36.1876 52.3175 36.1495C52.6583 36.0814 53.2821 36.1852 53.6235 36.1154C54.2477 35.9877 54.6522 35.7347 55.1682 35.3774C55.3955 35.22 55.7177 35.1018 55.9898 35.0816C56.1153 35.0723 56.2469 34.9607 56.3782 34.9322C56.4936 34.9073 56.6451 34.7352 56.7259 34.6342C56.8279 34.5067 57.4321 34.115 57.5913 34.0832C57.6403 34.0734 57.7815 34.4674 57.8279 34.4965C57.9482 34.5716 57.9005 34.9301 57.9657 35.0475L57.9904 35.092C58.3992 35.8276 58.835 36.6119 59.0672 37.448C59.2223 38.0061 59.0381 38.4612 59.0075 39.0425C58.9908 39.3601 59.0426 39.6061 59.0075 39.9219C58.9822 40.1494 58.9152 40.4181 58.8521 40.6389C58.7801 40.8911 58.5621 41.1003 58.5294 41.362C58.5032 41.5721 58.1934 41.6079 58.1035 41.7978C57.9143 42.1972 57.7673 42.3373 57.4147 42.6243C57.0036 42.9589 56.6847 43.559 56.199 43.7701C55.8342 43.9287 55.6484 44.2243 55.222 44.2243C54.5059 44.2243 53.7224 44.5529 53.0063 44.5529C51.6994 44.5529 50.4525 44.2387 49.2075 43.794C48.715 43.6181 48.0895 43.5544 47.6337 43.3131C47.2969 43.1348 46.4597 42.5309 46.2561 42.211C45.9648 41.7532 46.2017 41.4327 45.9717 40.9198C45.7454 40.4149 45.7297 39.8385 45.7297 39.2885C45.7297 38.7461 45.8579 38.3609 45.9658 37.8334Z" fill="#F6F6F6"/>
<path d="M36.3376 33.7346C36.7171 33.9434 37.0685 34.2395 37.4342 34.4726C38.5352 35.1746 39.722 35.511 40.9837 35.8022C41.7851 35.9871 42.5246 36.274 43.356 36.3161C44.4886 36.3734 45.5581 36.8001 46.6933 36.8001C47.2598 36.8001 47.8305 36.8208 48.3964 36.7941C48.9535 36.7679 49.5 36.6078 50.0516 36.5312C50.6214 36.4521 51.1686 36.2856 51.7278 36.1548C52.3364 36.0123 52.9543 35.9558 53.5653 35.8321C54.0262 35.7388 54.4978 35.6496 54.9337 35.4676C55.7071 35.1445 56.3812 34.6099 57.1207 34.2187C57.8165 33.8506 58.4861 33.3829 58.9791 32.7666" stroke="#0C0A00" stroke-linecap="round"/>
<path d="M50.3888 36.7557C50.257 36.7996 50.3425 37.0944 50.3766 37.1705C50.4981 37.4422 50.6831 37.6771 50.9593 37.8117C51.0661 37.8637 51.1926 37.852 51.3072 37.8749C51.428 37.8991 51.5532 37.9681 51.6783 37.9552C52.0629 37.9154 52.2696 37.6242 52.3376 37.2739C52.3911 36.9987 52.4739 36.7451 52.2087 36.5513C51.9611 36.3704 51.5326 36.4113 51.2415 36.4285C50.9529 36.4454 50.6134 36.5669 50.587 36.8968C50.5674 37.1426 50.8456 37.2958 51.0238 37.4199C51.1463 37.5053 51.2824 37.5354 51.4265 37.5647C51.6314 37.6064 51.733 37.5477 51.8608 37.3883C51.9626 37.2613 52.102 37.1444 52.1138 36.9698C52.1309 36.7183 51.8637 36.6313 51.6661 36.5842C51.4531 36.5334 51.1893 36.5087 50.98 36.5951C50.8622 36.6438 50.6869 36.7527 50.7294 36.9041C50.8026 37.1651 51.1898 37.2643 51.4192 37.2934C51.5679 37.3123 51.7409 37.3175 51.8851 37.2666C51.9839 37.2318 52.0752 37.112 51.9727 37.0209C51.9004 36.9566 51.7908 36.9604 51.7063 36.9905C51.6895 36.9965 51.615 37.064 51.615 37.0331C51.615 36.8559 51.3663 36.7093 51.2136 36.6778C51.0717 36.6486 51.0305 36.8423 51.0931 36.9394C51.1784 37.0717 51.6615 37.1713 51.7537 37.0087C51.8596 36.822 51.3522 36.7481 51.3522 36.909" stroke="#0C0A00" stroke-linecap="round"/>
<path d="M41.2575 36.2299C41.2575 36.2168 41.1994 36.3099 41.1845 36.3345C41.1505 36.3907 41.1339 36.4559 41.1212 36.5194C41.0891 36.6799 41.0776 36.8421 41.0823 37.006C41.0886 37.2279 41.2306 37.349 41.3889 37.4829C41.5432 37.6135 41.6916 37.6147 41.8949 37.6094C42.229 37.6007 42.4189 37.349 42.5738 37.0839C42.6871 36.89 42.7269 36.5395 42.5178 36.405C42.2981 36.2638 42.0235 36.3237 41.8049 36.1861C41.7176 36.1311 41.5726 36.0457 41.4716 36.0255C41.2787 35.9869 41.283 36.0647 41.204 36.2031C41.138 36.3185 41.1434 36.5709 41.1748 36.6994C41.2102 36.8446 41.3598 37.1215 41.4959 37.1934C41.6068 37.2519 41.7405 37.2389 41.8609 37.2372C42.0339 37.2346 42.1559 37.2112 42.2429 37.0547C42.4027 36.7671 41.9704 36.434 41.7173 36.388C41.5793 36.3629 41.4799 36.4653 41.4473 36.5948C41.4032 36.7695 41.4476 36.8896 41.6322 36.9257C41.8295 36.9643 42.1376 36.9662 42.1066 36.6897C42.077 36.4254 41.7817 36.3995 41.5738 36.4537C41.4147 36.4952 41.3603 36.7476 41.5154 36.8284C41.64 36.8934 41.8168 36.9427 41.8706 36.7992" stroke="#0C0A00" stroke-linecap="round"/>
<path d="M45.6068 36.7877C45.6068 37.075 45.6889 37.3594 45.6928 37.6422C45.6994 38.1288 45.6928 38.6161 45.6928 39.1028C45.6928 39.8623 45.7011 40.6444 45.5114 41.3845C45.317 42.1425 45.048 43.0697 44.404 43.5707C44.0195 43.8697 43.6467 44.091 43.1581 44.091C42.6416 44.091 42.1647 44.0298 41.6569 43.9621C41.331 43.9186 41.1336 43.6926 40.8406 43.5754C40.5994 43.4789 40.3064 43.1315 40.1413 42.931C39.9935 42.7515 39.8738 42.5407 39.7547 42.3391C39.5914 42.0629 39.4004 41.8203 39.2272 41.5539C39.057 41.292 38.9077 41.0292 38.7953 40.7401C38.7363 40.5885 38.6227 40.4889 38.5423 40.351C38.441 40.1774 38.3945 40.0136 38.337 39.8284C38.1935 39.366 38.1668 38.8737 38.0244 38.4178C37.8359 37.8149 37.7451 37.2666 37.7451 36.6397C37.7451 36.3074 37.7819 35.9829 37.7881 35.6517C37.7949 35.2843 38.0265 34.9574 38.2606 34.6898C38.4577 34.4647 38.6522 34.21 38.8621 34.0001C39.0475 33.8147 39.2192 33.5693 39.4206 33.4034C39.6729 33.1956 39.7725 32.8958 40.0554 32.7304C40.4153 32.52 40.7863 32.4479 41.1867 32.339C41.458 32.2652 41.7709 32.1622 42.0531 32.1504C42.36 32.1376 42.6577 32.1626 42.9624 32.191C43.2802 32.2205 43.5243 32.4298 43.7548 32.6373C43.9884 32.8475 44.3223 32.9258 44.5997 33.0645C44.9058 33.2176 45.2108 33.4526 45.435 33.7089C45.6619 33.9682 45.8844 34.2484 46.0699 34.5395C46.2981 34.8976 46.5565 35.2728 46.7477 35.6517C47.0131 36.1776 47.1125 36.7571 47.2584 37.32C47.329 37.5921 47.3064 37.9612 47.2178 38.2269C47.1743 38.3574 47.1452 38.7465 47.0245 38.8069" stroke="#0C0A00" stroke-linecap="round"/>
<path d="M44.7515 34.8587C44.8277 34.6426 44.9379 34.3989 45.066 34.2067C45.2336 33.9553 45.5128 33.8043 45.6857 33.5623C45.9846 33.1438 46.4508 32.9154 46.8448 32.611C47.3294 32.2365 47.9179 31.9662 48.5111 31.8121C48.8015 31.7367 49.088 31.7051 49.369 31.6005C49.7016 31.4768 50.0816 31.3796 50.429 31.3069C50.7549 31.2387 51.0568 31.1579 51.3937 31.2021C51.7642 31.2507 52.1378 31.3584 52.5128 31.3584C52.8279 31.3584 53.1426 31.4518 53.4337 31.5643C53.6534 31.6492 53.8703 31.6793 54.0857 31.7855C54.3482 31.9149 54.6493 32.0743 54.8769 32.2564C55.094 32.4301 55.3458 32.5548 55.5613 32.7311C55.7409 32.878 55.9703 32.9669 56.1714 33.0819C56.3299 33.1725 56.4636 33.2973 56.6175 33.3945C56.7579 33.4832 56.9074 33.5333 57.0293 33.65C57.3746 33.9806 57.8207 34.2509 57.9902 34.7291C58.0895 35.0091 58.2561 35.2444 58.362 35.5241C58.5444 36.0056 58.7074 36.4936 58.8043 36.9997C58.9248 37.6292 58.9244 38.2473 58.9244 38.8891C58.9244 39.4382 58.9684 39.961 58.7871 40.4848C58.6399 40.9102 58.4747 41.424 58.1351 41.7393C57.8118 42.0396 57.6181 42.4891 57.3191 42.8089C57.2036 42.9324 57.1252 43.102 57.037 43.2454C56.9567 43.3759 56.7465 43.4304 56.6385 43.5448C56.5121 43.6786 56.3064 43.7388 56.1447 43.8231C56.0039 43.8966 55.8895 44.018 55.7329 44.0633C55.0276 44.2675 54.3175 44.4465 53.6053 44.6048C53.2779 44.6775 52.9183 44.6391 52.5834 44.6391C52.208 44.6391 51.84 44.6653 51.4795 44.5571C51.0797 44.4372 50.6607 44.3993 50.2574 44.2959C49.7758 44.1724 49.3015 44.0747 48.8238 43.9337C48.6405 43.8796 48.4526 43.8549 48.269 43.8117C48.0045 43.7494 47.785 43.5545 47.5674 43.4094C47.2449 43.1944 46.9089 43.012 46.6694 42.6945C46.5366 42.5184 46.3635 42.3736 46.2252 42.2007C46.1157 42.0638 46.0279 41.9109 45.9335 41.7641C45.834 41.6093 45.8153 41.3371 45.8153 41.1559C45.8153 40.6386 45.8857 40.1513 45.7505 39.6441C45.6997 39.4537 45.7467 39.1871 45.7467 38.9882C45.7467 38.6801 45.7116 38.3443 45.7734 38.0426C45.8505 37.6654 45.8977 37.3158 46.1585 37.055" stroke="#0C0A00" stroke-linecap="round"/>
</svg>
