<svg width="100" height="100" viewBox="0 0 100 100" fill="none" xmlns="http://www.w3.org/2000/svg">
<rect width="100" height="100" rx="50" fill="#FAF353"/>
<path d="M26.6606 37.5695C29.1688 43.1761 27.7057 45.9303 26.6606 46.6065C20.021 50.9027 16.3325 60.2542 27.5827 63.7584C35.5726 66.247 35.4516 67.8158 34.5909 69.1068C33.6687 71.6274 33.8533 77.443 39.0173 79.8037C44.1814 82.1644 49.8987 77.9594 52.1118 75.5619C52.6651 74.2709 54.3987 72.0946 56.907 73.7176C59.4152 75.3406 62.8702 75.6233 64.2841 75.5619C72.6941 73.2012 72.5835 65.6027 71.4769 62.0985C69.2637 59.3321 66.1653 53.4672 71.4769 52.1394C76.7885 50.8115 78.8541 47.8975 79.2229 46.6065C81.2885 39.5244 74.9196 36.4014 71.4769 35.7252C66.1653 36.1678 63.6079 33.3276 62.9931 31.8521C62.403 24.475 60.2882 21.5241 59.3046 20.9708C56.7225 19.5569 50.7101 17.9093 47.3166 22.6307C43.9232 27.3521 40.3698 28.1636 39.0173 27.9791C33.5582 27.0939 30.3492 27.6103 29.427 27.9791C27.4598 28.8398 24.1524 31.9628 26.6606 37.5695Z" fill="#4AADA7" stroke="#0C0A00"/>
<path d="M36.6085 41.0017C37.2949 41.977 37.9077 43.0723 38.7127 43.9233C39.3149 44.56 39.8367 45.2346 40.3779 45.9064C41.0754 46.7723 42.2962 47.1695 43.1254 47.8743C43.3539 48.0686 43.6372 48.2403 43.8899 48.4042C44.2773 48.6555 44.7582 48.3415 45.1161 48.6994C45.5056 49.0888 46.5434 49.1118 47.0689 49.2519C48.3357 49.5897 49.7563 49.4487 51.0577 49.4487C51.4224 49.4487 51.4146 49.4296 51.6557 49.2368C51.9024 49.0394 52.6297 49.0994 52.9424 49.0324C53.7223 48.8653 54.3135 48.291 55.0693 48.0938C56.2473 47.7865 57.3203 46.9486 58.1348 46.0578C58.5941 45.5554 59.1319 44.659 59.3609 44.0293C59.6038 43.3614 59.58 42.5589 59.8378 41.9403C60.0933 41.3269 60.1429 40.7362 60.3222 40.1086C60.4966 39.498 60.8596 38.9235 60.8596 38.2769" stroke="#0C0A00" stroke-linecap="round"/>
<path d="M41.2799 41.8318C41.2799 41.6226 41.2069 41.5433 41.1179 41.3611C41.037 41.1958 41.1988 41.0152 41.2105 40.8442C41.2303 40.5525 41.3398 40.3245 41.4111 40.0571C41.459 39.8773 41.4375 39.6823 41.4998 39.5016C41.5911 39.2368 41.8402 39.0003 42.0091 38.7801C42.2916 38.4115 42.5884 37.9695 42.9234 37.6497C43.3438 37.2485 44.4179 36.9806 44.7251 37.561C44.9551 37.9954 45.0994 38.2032 45.0994 38.7068C45.0994 39.133 44.9842 39.4478 44.9258 39.8565C44.8803 40.175 44.8295 40.6028 44.6094 40.8596C44.5234 40.96 44.4837 41.0697 44.4049 41.1721C44.377 41.2084 44.2993 41.487 44.2815 41.4692C44.1892 41.3769 44.266 40.8802 44.266 40.7593C44.266 40.5188 44.3453 40.1594 44.4744 39.9529C44.596 39.7584 44.5678 39.4121 44.54 39.1891C44.525 39.0693 44.4744 38.9683 44.4744 38.8457C44.4744 38.7031 44.3507 38.7154 44.3355 38.5833C44.2904 38.1922 43.5646 37.804 43.2244 37.804" stroke="#0C0A00" stroke-linecap="round"/>
<path d="M51.5165 38.2955C51.5047 38.5975 51.4585 38.9008 51.3876 39.1466C51.3433 39.3003 51.2812 39.4503 51.2102 39.5983V40.0957C51.2102 40.2662 51.2225 40.4429 51.2063 40.6127C51.1895 40.7895 51.0355 40.9299 50.9864 41.1065C50.8454 41.6139 50.5163 41.018 50.6469 40.6975C50.7979 40.3268 51.0321 39.969 51.2102 39.5983V39.4051C51.2102 39.1485 51.3249 39.1377 51.4069 38.919C51.4511 38.8011 51.4185 38.6233 51.4185 38.4984C51.4185 38.399 51.4755 38.3582 51.5165 38.2955Z" fill="#4AADA7"/>
<path d="M47.2518 41.7624C47.2518 41.2797 47.2436 40.8158 47.3868 40.3503C47.4828 40.0385 47.6858 39.8701 47.8112 39.5941C47.934 39.324 48.2181 39.1062 48.2858 38.8187C48.3305 38.6284 48.4103 38.4261 48.6098 38.3557C49.0052 38.2161 49.1385 37.5222 49.4123 37.2484C49.6699 36.9908 49.9103 36.6929 50.3151 36.6929C50.9732 36.6929 51.3091 36.8881 51.4571 37.5262C51.5681 38.0049 51.5222 38.6794 51.3876 39.1466C51.2324 39.6854 50.8582 40.1788 50.6469 40.6975C50.5163 41.018 50.8454 41.6139 50.9864 41.1065C51.0355 40.9299 51.1895 40.7895 51.2063 40.6127C51.2225 40.4429 51.2102 40.2662 51.2102 40.0957C51.2102 39.8655 51.2102 39.6353 51.2102 39.4051C51.2102 39.1485 51.3249 39.1377 51.4069 38.919C51.4511 38.8011 51.4185 38.6233 51.4185 38.4984C51.4185 38.3433 51.5574 38.3309 51.5574 38.1551C51.5574 38.0044 51.608 37.3705 51.623 37.4606C51.6865 37.8419 52.0435 38.0678 52.0435 38.4984C52.0435 38.7129 52.1504 39.3768 51.9972 39.5556C51.7481 39.8462 51.8321 40.2117 51.6577 40.5278C51.5574 40.7095 51.583 40.8669 51.4494 41.0525C51.35 41.1905 51.267 41.2445 51.2102 41.4151" stroke="#0C0A00" stroke-linecap="round"/>
<path d="M51.2103 49.6094C51.7553 49.6094 52.0148 49.8055 52.414 50.0569C52.9225 50.3771 53.5008 50.8828 53.8338 51.3995C54.2011 51.9694 54.6718 52.5449 54.6826 53.2437C54.6876 53.5706 54.7177 53.9112 54.8909 54.1927C55.0936 54.5221 54.9861 54.7805 54.9642 55.1418C54.9421 55.5064 54.8694 55.824 54.8292 56.1758C54.7925 56.4965 54.8145 56.8331 54.6826 57.1364C54.5646 57.4079 54.6106 57.6977 54.4781 57.9736C54.3677 58.2037 54.2768 58.3476 54.2621 58.6064C54.232 59.1322 53.8516 59.4197 53.7181 59.8872C53.6247 60.2139 53.2242 60.428 53.2242 60.79" stroke="#0C0A00" stroke-linecap="round"/>
<path d="M29.0651 53.414C28.9998 53.9149 28.6699 54.3984 28.5474 54.8933C28.4111 55.4438 28.5075 55.9496 28.8679 56.3787C28.941 56.4658 28.9945 56.7024 29.1021 56.7331C29.4146 56.8224 29.7502 56.6853 29.9835 56.4897C30.7833 55.8191 31.2342 54.9413 31.4258 53.9225C31.5453 53.2872 31.7779 52.6638 31.8296 52.0179C31.8566 51.6803 31.8388 51.3364 31.8388 50.9978C31.8388 50.348 31.602 50.1735 30.9759 50.4307C30.0311 50.8189 29.5239 51.5972 29.4072 52.5695C29.3408 53.123 29.2494 53.8468 29.4535 54.357" stroke="#FAF353" stroke-linecap="round"/>
<path d="M31.5165 37.2278C31.4647 37.5213 30.7479 38.3739 31.4802 38.5156C31.8535 38.5879 32.309 38.5496 32.6895 38.5338C33.3043 38.5082 33.5723 38.0167 34.0196 37.6813C34.7457 37.1367 35.3211 36.5427 35.8698 35.8372C36.1851 35.4317 36.7404 35.1612 36.7404 34.5614C36.7404 33.3556 33.9868 34.4227 33.4997 34.9423C33.2118 35.2494 32.8725 35.2624 32.5444 35.4986C32.3874 35.6116 31.7728 35.8876 31.7342 36.0548C31.6484 36.4265 31.26 36.3703 31.0933 36.6413C30.9406 36.8894 30.9723 37.2759 30.9723 37.5543" stroke="#FAF353" stroke-linecap="round"/>
<path d="M51.7029 31.0236C51.8104 31.1741 52.0498 31.2327 52.2161 31.2812C52.4008 31.335 52.5234 31.4189 52.6861 31.5191C52.9641 31.6904 53.2159 31.8076 53.5337 31.8712C53.8591 31.9362 54.1468 32.109 54.4796 32.1484C54.8528 32.1927 55.2095 32.2979 55.5887 32.2979C55.7727 32.2979 56.1454 32.3365 56.2691 32.1622C56.524 31.803 56.4701 31.2459 56.3675 30.8466C56.2058 30.2178 55.4931 29.8882 55.0263 29.5251C54.6402 29.2248 54.3445 29.0509 53.8542 28.9627C53.4042 28.8817 52.9946 28.773 52.5367 28.7503C52.2315 28.7351 51.9281 28.718 51.6222 28.7247C51.4884 28.7277 51.2315 28.6998 51.1031 28.764C50.9577 28.8367 50.8116 29.0723 50.7747 29.2262C50.7403 29.3693 50.7471 29.5129 50.7471 29.6588C50.7471 29.9288 51.1963 30.4584 51.4315 30.5713C51.4843 30.5966 51.4883 30.6579 51.5652 30.6873C51.6738 30.7288 51.7638 30.7895 51.8621 30.8505C52.1566 31.0333 52.3874 31.1545 52.7294 31.236" stroke="#FAF353" stroke-linecap="round"/>
<path d="M65.8261 41.3951C66.0201 41.5992 66.1442 41.8548 66.3571 42.0401C66.5607 42.2174 66.7684 42.3547 66.9785 42.5199C67.1369 42.6446 67.3333 42.6928 67.4898 42.8188C67.6584 42.9546 67.8191 43.0935 68.009 43.2003C68.2298 43.3246 68.3967 43.4544 68.5871 43.6251C68.7857 43.8032 68.9987 44.0589 69.2597 44.1482C69.5057 44.2324 69.6891 44.4139 69.9597 44.4393C70.0736 44.4499 70.1637 44.5656 70.2862 44.5297C70.4383 44.4851 70.6432 44.3156 70.7582 44.2111C70.9084 44.0746 70.9941 43.868 70.9941 43.6723C70.9941 43.5258 71.0142 43.3634 70.9784 43.22C70.9186 42.9809 70.6819 42.7597 70.5182 42.5888C69.8777 41.9197 69.1728 41.2397 68.3905 40.7383C68.1209 40.5654 67.795 40.2767 67.48 40.2211C67.1965 40.171 66.9673 39.9994 66.6757 39.9811C66.4902 39.9696 66.1299 39.9118 66.0031 40.0657C65.957 40.1217 65.8861 40.1112 65.8615 40.1817C65.8231 40.2921 65.7799 40.3889 65.7219 40.4905C65.6548 40.6078 65.6845 40.7732 65.6845 40.9054C65.6845 41.3906 66.0862 41.5604 66.4987 41.6783" stroke="#FAF353" stroke-linecap="round"/>
<path d="M43.6189 48.2147C42.2515 53.2284 41.3399 63.6204 48.6326 65.0789C50.9115 65.8386 56.2898 66.6286 59.5715 63.7116C62.8532 60.7945 63.0659 54.5957 62.762 51.861C62.4582 49.8859 61.3947 45.6623 59.5715 44.5684" stroke="#0C0A00"/>
</svg>
